<?xml version="1.0" encoding="UTF-8" standalone="no"?>
<!DOCTYPE svg PUBLIC "-//W3C//DTD SVG 1.1//EN" "http://www.w3.org/Graphics/SVG/1.1/DTD/svg11.dtd">
<svg width="100%" height="100%" viewBox="0 0 767 92" version="1.1" xmlns="http://www.w3.org/2000/svg" xmlns:xlink="http://www.w3.org/1999/xlink" xml:space="preserve" xmlns:serif="http://www.serif.com/" style="fill-rule:evenodd;clip-rule:evenodd;stroke-linejoin:round;stroke-miterlimit:2;">
    <rect id="Artboard1" x="0" y="0" width="766.445" height="91.463" style="fill:none;"/>
    <clipPath id="_clip1">
        <rect id="Artboard11" serif:id="Artboard1" x="0" y="0" width="766.445" height="91.463"/>
    </clipPath>
    <g clip-path="url(#_clip1)">
        <g transform="matrix(0.656373,0,0,0.0679092,-2.84217e-14,0)">
            <g transform="matrix(2.33539,0,0,22.5726,0,-7597.11)">
                <path d="M2.309,383.206L26.577,383.206C27.761,383.206 28.472,382.496 28.472,381.312L28.472,377.524C28.472,376.34 27.761,375.63 26.577,375.63L9.589,375.63C8.938,375.63 8.524,375.215 8.524,374.564L8.524,341.89C8.524,340.706 7.873,339.996 6.689,339.996L1.894,339.996C0.71,339.996 0,340.706 0,341.89L0,380.958C0,382.378 0.829,383.206 2.309,383.206Z" style="fill:white;fill-rule:nonzero;"/>
            </g>
            <g transform="matrix(2.33539,0,0,22.5726,0,-7597.11)">
                <path d="M30.721,367.698C30.721,377.109 37.41,383.798 47.354,383.798C50.846,383.798 53.806,382.614 56.115,380.661C56.766,380.069 57.358,380.187 57.654,380.958L57.95,381.726C58.364,382.733 59.074,383.206 60.14,383.206L61.56,383.206C62.744,383.206 63.454,382.496 63.454,381.312L63.454,354.32C63.454,353.136 62.744,352.426 61.56,352.426L59.785,352.426C58.778,352.426 58.009,352.9 57.594,353.906L57.476,354.439C57.18,355.327 56.588,355.386 55.878,354.853C53.451,352.9 50.491,351.834 47.117,351.834C37.587,351.834 30.721,358.582 30.721,367.698ZM39.126,367.698C39.126,362.666 42.855,358.819 47.65,358.819C50.61,358.819 53.333,360.417 54.812,362.726C55.168,363.199 55.227,363.673 55.227,364.205L55.227,371.427C55.227,371.96 55.168,372.374 54.872,372.848C53.392,375.215 50.669,376.814 47.65,376.814C42.737,376.814 39.126,372.729 39.126,367.698Z" style="fill:white;fill-rule:nonzero;"/>
            </g>
            <g transform="matrix(2.33539,0,0,22.5726,0,-7597.11)">
                <path d="M68.604,354.557L79.081,381.845C79.436,382.792 80.088,383.206 81.035,383.206L82.041,383.206L77.602,394.039C77.069,395.341 77.661,396.23 79.081,396.23L83.047,396.23C84.172,396.23 84.882,395.755 85.237,394.749L100.272,354.557C100.746,353.255 100.154,352.426 98.792,352.426L93.761,352.426C92.696,352.426 91.985,352.9 91.63,353.965L85.297,374.031C84.941,375.097 84.113,375.097 83.758,374.031L77.306,353.965C77.01,352.959 76.24,352.426 75.175,352.426L70.084,352.426C68.723,352.426 68.131,353.255 68.604,354.557Z" style="fill:white;fill-rule:nonzero;"/>
            </g>
            <g transform="matrix(2.33539,0,0,22.5726,0,-7597.11)">
                <path d="M102.758,367.579C102.758,377.109 109.802,383.798 118.918,383.798C125.962,383.798 131.052,380.01 132.769,375.097C133.243,373.854 132.414,373.025 131.112,373.025L127.087,373.025C126.08,373.025 125.488,373.558 124.896,374.387C123.949,375.985 121.878,377.109 118.918,377.109C115.426,377.109 112.644,375.156 111.46,371.901C110.986,370.776 111.696,370.066 112.821,370.066L131.881,370.066C132.947,370.066 133.716,369.355 133.716,368.349C134.071,358.405 126.909,351.834 118.918,351.834C109.625,351.834 102.758,358.286 102.758,367.579ZM111.815,362.785C113.295,360.062 115.899,358.464 118.8,358.464C121.7,358.464 124.068,360.121 125.192,362.844C125.666,364.028 124.956,364.738 123.772,364.738L113.176,364.738C111.933,364.738 111.282,363.91 111.815,362.785Z" style="fill:white;fill-rule:nonzero;"/>
            </g>
            <g transform="matrix(2.33539,0,0,22.5726,0,-7597.11)">
                <path d="M141.885,383.206L146.324,383.206C147.508,383.206 148.159,382.496 148.159,381.312L148.159,364.501C148.159,363.614 148.514,362.962 149.284,362.43C151.592,360.832 153.723,359.884 155.973,359.884C156.564,359.884 157.334,359.944 157.985,360.003C159.287,360.121 159.998,359.707 160.116,358.464L160.59,354.084C160.708,352.959 160.294,352.13 159.11,351.953C158.636,351.834 158.163,351.834 157.63,351.834C154.611,351.834 151.592,353.077 148.396,355.267C147.39,355.978 146.561,355.682 146.147,354.557L145.91,353.906C145.495,352.9 144.844,352.426 143.779,352.426L141.885,352.426C140.701,352.426 139.991,353.136 139.991,354.32L139.991,381.312C139.991,382.496 140.701,383.206 141.885,383.206Z" style="fill:white;fill-rule:nonzero;"/>
            </g>
            <g transform="matrix(2.33539,0,0,22.5726,0,-7597.11)">
                <path d="M163.904,361.068C163.904,373.025 182.846,368.645 182.905,374.446C182.905,376.399 180.893,377.405 177.696,377.405C174.085,377.405 171.659,376.103 170.593,373.854C170.179,372.848 169.587,372.315 168.521,372.315L164.496,372.315C163.253,372.315 162.484,373.025 162.78,374.327C164.023,380.365 169.705,383.798 177.519,383.798C185.391,383.798 190.896,380.424 190.896,374.387C190.896,362.489 171.895,366.632 171.895,360.891C171.895,359.292 173.612,358.227 176.868,358.227C180.064,358.227 181.84,359.352 182.55,361.305C182.964,362.371 183.497,362.962 184.622,362.962L188.41,362.962C189.712,362.962 190.482,362.252 190.186,361.009C188.943,355.563 184.622,351.834 176.986,351.834C168.462,351.834 163.904,355.741 163.904,361.068Z" style="fill:white;fill-rule:nonzero;"/>
            </g>
            <g transform="matrix(2.33539,0,0,22.5726,0,-7597.11)">
                <path d="M206.286,367.579C206.286,376.695 213.271,383.798 223.156,383.798C233.041,383.798 239.967,376.695 239.967,367.579C239.967,358.76 233.041,351.834 223.156,351.834C213.271,351.834 206.286,358.76 206.286,367.579ZM214.514,367.816C214.514,362.726 218.006,358.819 223.156,358.819C228.247,358.819 231.798,362.726 231.798,367.816C231.798,372.907 228.247,376.814 223.156,376.814C218.006,376.814 214.514,372.907 214.514,367.816Z" style="fill:white;fill-rule:nonzero;"/>
            </g>
            <g transform="matrix(2.33539,0,0,22.5726,0,-7597.11)">
                <path d="M244.821,359.352L247.484,359.352C247.899,359.352 248.135,359.648 248.135,360.062L248.135,381.431C248.135,382.614 248.846,383.325 250.03,383.325L254.469,383.325C255.653,383.325 256.363,382.614 256.363,381.431L256.363,360.062C256.363,359.648 256.659,359.352 257.014,359.352L262.993,359.352C264.236,359.352 264.887,358.641 264.887,357.458L264.887,354.32C264.887,353.136 264.236,352.426 262.993,352.426L257.014,352.426C256.659,352.426 256.363,352.13 256.363,351.775L256.363,347.04C256.363,344.435 257.784,343.725 260.269,343.725C261.217,343.725 262.105,343.843 263.052,344.139C264.295,344.435 265.065,344.021 265.242,342.719L265.597,339.522C265.716,338.457 265.301,337.628 264.236,337.332C262.697,336.858 260.683,336.563 258.79,336.563C252.042,336.563 248.135,339.877 248.135,347.04L248.135,351.775C248.135,352.13 247.899,352.426 247.484,352.426L244.821,352.426C243.637,352.426 242.926,353.136 242.926,354.32L242.926,357.458C242.926,358.641 243.637,359.352 244.821,359.352Z" style="fill:white;fill-rule:nonzero;"/>
            </g>
            <g transform="matrix(2.33539,0,0,22.5726,0,-7597.11)">
                <path d="M285.545,383.206L309.814,383.206C310.998,383.206 311.708,382.496 311.708,381.312L311.708,377.524C311.708,376.34 310.998,375.63 309.814,375.63L292.826,375.63C292.175,375.63 291.76,375.215 291.76,374.564L291.76,341.89C291.76,340.706 291.109,339.996 289.925,339.996L285.131,339.996C283.947,339.996 283.237,340.706 283.237,341.89L283.237,380.958C283.237,382.378 284.065,383.206 285.545,383.206Z" style="fill:white;fill-rule:nonzero;"/>
            </g>
            <g transform="matrix(2.33539,0,0,22.5726,0,-7597.11)">
                <path d="M313.898,367.579C313.898,376.695 320.883,383.798 330.768,383.798C340.653,383.798 347.579,376.695 347.579,367.579C347.579,358.76 340.653,351.834 330.768,351.834C320.883,351.834 313.898,358.76 313.898,367.579ZM322.126,367.816C322.126,362.726 325.619,358.819 330.768,358.819C335.859,358.819 339.41,362.726 339.41,367.816C339.41,372.907 335.859,376.814 330.768,376.814C325.619,376.814 322.126,372.907 322.126,367.816Z" style="fill:white;fill-rule:nonzero;"/>
            </g>
            <g transform="matrix(2.33539,0,0,22.5726,0,-7597.11)">
                <path d="M355.748,383.206L360.128,383.206C361.312,383.206 362.022,382.496 362.022,381.312L362.022,363.85C362.022,362.962 362.318,362.311 363.087,361.838C365.633,360.24 368.415,359.056 370.901,359.056C374.334,359.056 376.228,361.246 376.228,364.679L376.228,381.312C376.228,382.496 376.939,383.206 378.122,383.206L382.562,383.206C383.746,383.206 384.397,382.496 384.397,381.312L384.397,364.325C384.397,356.333 380.372,351.834 373.565,351.834C369.125,351.834 365.751,352.959 362.259,355.09C361.193,355.741 360.365,355.445 360.009,354.32L359.891,353.906C359.536,352.959 358.826,352.426 357.76,352.426L355.748,352.426C354.564,352.426 353.853,353.136 353.853,354.32L353.853,381.312C353.853,382.496 354.564,383.206 355.748,383.206Z" style="fill:white;fill-rule:nonzero;"/>
            </g>
            <g transform="matrix(2.33539,0,0,22.5726,0,-7597.11)">
                <path d="M390.375,367.698C390.375,377.109 397.064,383.798 406.89,383.798C410.382,383.798 413.283,382.733 415.591,380.779C416.479,379.951 417.308,380.128 417.781,381.253L418.077,381.786C418.492,382.792 419.202,383.206 420.208,383.206L421.392,383.206C422.576,383.206 423.286,382.496 423.286,381.312L423.286,338.93C423.286,337.746 422.576,337.036 421.392,337.036L417.19,337.036C416.006,337.036 415.295,337.746 415.295,338.93L415.295,352.367C415.295,353.669 414.526,354.024 413.401,353.432C411.389,352.367 409.139,351.834 406.653,351.834C397.242,351.834 390.375,358.582 390.375,367.698ZM398.781,367.698C398.781,362.666 402.51,358.819 407.186,358.819C410.264,358.819 413.105,360.476 414.585,362.903C414.999,363.554 415.059,364.146 415.059,364.916L415.059,370.657C415.059,371.427 414.999,371.96 414.585,372.67C413.224,375.097 410.442,376.814 407.186,376.814C402.391,376.814 398.781,372.729 398.781,367.698Z" style="fill:white;fill-rule:nonzero;"/>
            </g>
            <g transform="matrix(2.33539,0,0,22.5726,0,-7597.11)">
                <path d="M429.502,367.579C429.502,376.695 436.486,383.798 446.371,383.798C456.257,383.798 463.182,376.695 463.182,367.579C463.182,358.76 456.257,351.834 446.371,351.834C436.486,351.834 429.502,358.76 429.502,367.579ZM437.729,367.816C437.729,362.726 441.222,358.819 446.371,358.819C451.462,358.819 455.014,362.726 455.014,367.816C455.014,372.907 451.462,376.814 446.371,376.814C441.222,376.814 437.729,372.907 437.729,367.816Z" style="fill:white;fill-rule:nonzero;"/>
            </g>
            <g transform="matrix(2.33539,0,0,22.5726,0,-7597.11)">
                <path d="M471.351,383.206L475.731,383.206C476.915,383.206 477.625,382.496 477.625,381.312L477.625,363.85C477.625,362.962 477.921,362.311 478.691,361.838C481.236,360.24 484.018,359.056 486.504,359.056C489.937,359.056 491.831,361.246 491.831,364.679L491.831,381.312C491.831,382.496 492.542,383.206 493.726,383.206L498.165,383.206C499.349,383.206 500,382.496 500,381.312L500,364.325C500,356.333 495.975,351.834 489.168,351.834C484.728,351.834 481.354,352.959 477.862,355.09C476.796,355.741 475.968,355.445 475.613,354.32L475.494,353.906C475.139,352.959 474.429,352.426 473.363,352.426L471.351,352.426C470.167,352.426 469.457,353.136 469.457,354.32L469.457,381.312C469.457,382.496 470.167,383.206 471.351,383.206Z" style="fill:white;fill-rule:nonzero;"/>
            </g>
        </g>
    </g>
</svg>
