<?xml version="1.0" encoding="utf-8"?>
<!-- Generator: Adobe Illustrator 22.0.1, SVG Export Plug-In . SVG Version: 6.00 Build 0)  -->
<svg version="1.1" id="Layer_1" xmlns="http://www.w3.org/2000/svg" xmlns:xlink="http://www.w3.org/1999/xlink" x="0px" y="0px"
	 width="380.3px" height="300.9px" viewBox="0 0 380.3 300.9" style="enable-background:new 0 0 380.3 300.9;" xml:space="preserve"
	>
<style type="text/css">
	.st0{fill:#FFFFFF;}
	.st1{fill-rule:evenodd;clip-rule:evenodd;fill:#FFEB57;}
</style>
<g>
	<path class="st0" d="M0,289.3v-29.7c0-0.9,0.5-1.4,1.4-1.4h3.6c0.9,0,1.4,0.5,1.4,1.4v24.8c0,0.5,0.3,0.8,0.8,0.8h12.9
		c0.9,0,1.4,0.5,1.4,1.4v2.9c0,0.9-0.5,1.4-1.4,1.4H1.8C0.6,291,0,290.3,0,289.3z"/>
	<path class="st0" d="M35.9,267.1c2.6,0,4.8,0.8,6.7,2.3c0.5,0.4,1,0.4,1.2-0.3l0.1-0.4c0.3-0.8,0.9-1.1,1.7-1.1h1.4
		c0.9,0,1.4,0.5,1.4,1.4v20.5c0,0.9-0.5,1.4-1.4,1.4h-1.1c-0.8,0-1.4-0.4-1.7-1.1l-0.2-0.6c-0.2-0.6-0.7-0.7-1.2-0.2
		c-1.8,1.5-4,2.4-6.7,2.4c-7.6,0-12.6-5.1-12.6-12.2C23.4,272.2,28.6,267.1,35.9,267.1z M36.3,286.1c2.3,0,4.4-1.2,5.5-3
		c0.2-0.4,0.3-0.7,0.3-1.1v-5.5c0-0.4,0-0.8-0.3-1.1c-1.1-1.8-3.2-3-5.4-3c-3.6,0-6.5,2.9-6.5,6.8S32.5,286.1,36.3,286.1z"/>
	<path class="st0" d="M53.3,267.6h3.9c0.8,0,1.4,0.4,1.6,1.2l4.9,15.3c0.3,0.8,0.9,0.8,1.2,0l4.8-15.3c0.3-0.8,0.8-1.2,1.6-1.2h3.8
		c1,0,1.5,0.6,1.1,1.6l-11.4,30.6c-0.3,0.8-0.8,1.1-1.7,1.1h-3c-1.1,0-1.5-0.7-1.1-1.7l3.4-8.2h-0.8c-0.7,0-1.2-0.3-1.5-1l-8-20.8
		C51.9,268.2,52.3,267.6,53.3,267.6z"/>
	<path class="st0" d="M90.5,267.1c6.1,0,11.5,5,11.3,12.6c0,0.8-0.6,1.3-1.4,1.3H85.9c-0.9,0-1.4,0.5-1,1.4c0.9,2.5,3,4,5.7,4
		c2.3,0,3.8-0.9,4.5-2.1c0.5-0.6,0.9-1,1.7-1h3.1c1,0,1.6,0.6,1.3,1.6c-1.3,3.7-5.2,6.6-10.5,6.6c-6.9,0-12.3-5.1-12.3-12.3
		C78.2,272,83.5,267.1,90.5,267.1z M86.2,276.9h8.1c0.9,0,1.4-0.5,1.1-1.4c-0.9-2.1-2.7-3.3-4.9-3.3c-2.2,0-4.2,1.2-5.3,3.3
		C84.7,276.3,85.2,276.9,86.2,276.9z"/>
	<path class="st0" d="M106.5,289.5V269c0-0.9,0.5-1.4,1.4-1.4h1.4c0.8,0,1.3,0.4,1.6,1.1l0.2,0.5c0.3,0.9,0.9,1.1,1.7,0.5
		c2.4-1.7,4.7-2.6,7-2.6c0.4,0,0.8,0,1.1,0.1c0.9,0.1,1.2,0.8,1.1,1.6l-0.4,3.3c-0.1,0.9-0.6,1.3-1.6,1.2c-0.5,0-1.1-0.1-1.5-0.1
		c-1.7,0-3.3,0.7-5.1,1.9c-0.6,0.4-0.9,0.9-0.9,1.6v12.8c0,0.9-0.5,1.4-1.4,1.4H108C107.1,291,106.5,290.4,106.5,289.5z"/>
	<path class="st0" d="M134.7,267.1c5.8,0,9.1,2.8,10,7c0.2,0.9-0.4,1.5-1.4,1.5h-2.9c-0.9,0-1.3-0.5-1.6-1.3
		c-0.5-1.5-1.9-2.3-4.3-2.3c-2.5,0-3.8,0.8-3.8,2c0,4.4,14.4,1.2,14.4,10.3c0,4.6-4.2,7.2-10.2,7.2c-5.9,0-10.3-2.6-11.2-7.2
		c-0.2-1,0.4-1.5,1.3-1.5h3.1c0.8,0,1.3,0.4,1.6,1.2c0.8,1.7,2.7,2.7,5.4,2.7c2.4,0,4-0.8,4-2.3c0-4.4-14.4-1.1-14.4-10.2
		C124.8,270.1,128.2,267.1,134.7,267.1z"/>
</g>
<g>
	<path class="st0" d="M169.7,267.1c7.5,0,12.8,5.3,12.8,12c0,6.9-5.3,12.3-12.8,12.3c-7.5,0-12.8-5.4-12.8-12.3
		C156.9,272.4,162.2,267.1,169.7,267.1z M169.7,286.1c3.9,0,6.6-3,6.6-6.8s-2.7-6.8-6.6-6.8c-3.9,0-6.6,3-6.6,6.8
		S165.8,286.1,169.7,286.1z"/>
	<path class="st0" d="M184.7,271.4V269c0-0.9,0.5-1.4,1.4-1.4h2c0.3,0,0.5-0.2,0.5-0.5v-3.6c0-5.4,3-8,8.1-8c1.4,0,3,0.2,4.1,0.6
		c0.8,0.2,1.1,0.9,1,1.7l-0.3,2.4c-0.1,1-0.7,1.3-1.7,1.1c-0.7-0.2-1.4-0.3-2.1-0.3c-1.9,0-3,0.5-3,2.5v3.6c0,0.3,0.2,0.5,0.5,0.5
		h4.5c0.9,0,1.4,0.5,1.4,1.4v2.4c0,0.9-0.5,1.4-1.4,1.4h-4.5c-0.3,0-0.5,0.2-0.5,0.5v16.2c0,0.9-0.5,1.4-1.4,1.4h-3.4
		c-0.9,0-1.4-0.5-1.4-1.4v-16.2c0-0.3-0.2-0.5-0.5-0.5h-2C185.3,272.8,184.7,272.3,184.7,271.4z"/>
	<path class="st0" d="M215.4,289.3v-29.7c0-0.9,0.5-1.4,1.4-1.4h3.6c0.9,0,1.4,0.5,1.4,1.4v24.8c0,0.5,0.3,0.8,0.8,0.8h12.9
		c0.9,0,1.4,0.5,1.4,1.4v2.9c0,0.9-0.5,1.4-1.4,1.4h-18.5C216,291,215.4,290.3,215.4,289.3z"/>
	<path class="st0" d="M251.6,267.1c7.5,0,12.8,5.3,12.8,12c0,6.9-5.3,12.3-12.8,12.3c-7.5,0-12.8-5.4-12.8-12.3
		C238.8,272.4,244.1,267.1,251.6,267.1z M251.6,286.1c3.9,0,6.6-3,6.6-6.8s-2.7-6.8-6.6-6.8c-3.9,0-6.6,3-6.6,6.8
		S247.7,286.1,251.6,286.1z"/>
	<path class="st0" d="M269.1,289.5V269c0-0.9,0.5-1.4,1.4-1.4h1.5c0.8,0,1.4,0.4,1.6,1.1l0.1,0.3c0.3,0.9,0.9,1.1,1.7,0.6
		c2.7-1.6,5.2-2.5,8.6-2.5c5.2,0,8.2,3.4,8.2,9.5v12.9c0,0.9-0.5,1.4-1.4,1.4h-3.4c-0.9,0-1.4-0.5-1.4-1.4v-12.6
		c0-2.6-1.4-4.3-4.1-4.3c-1.9,0-4,0.9-5.9,2.1c-0.6,0.4-0.8,0.9-0.8,1.5v13.3c0,0.9-0.5,1.4-1.4,1.4h-3.3
		C269.7,291,269.1,290.4,269.1,289.5z"/>
	<path class="st0" d="M309.3,267.1c1.9,0,3.6,0.4,5.1,1.2c0.9,0.5,1.4,0.2,1.4-0.8v-10.2c0-0.9,0.5-1.4,1.4-1.4h3.2
		c0.9,0,1.4,0.5,1.4,1.4v32.2c0,0.9-0.5,1.4-1.4,1.4h-0.9c-0.8,0-1.3-0.3-1.6-1.1l-0.2-0.4c-0.4-0.9-1-1-1.7-0.4
		c-1.8,1.5-4,2.3-6.6,2.3c-7.5,0-12.6-5.1-12.6-12.2C296.9,272.2,302.1,267.1,309.3,267.1z M309.7,286.1c2.5,0,4.6-1.3,5.6-3.2
		c0.3-0.5,0.4-0.9,0.4-1.5v-4.4c0-0.6,0-1-0.4-1.5c-1.1-1.8-3.3-3.1-5.6-3.1c-3.6,0-6.4,2.9-6.4,6.8S306.1,286.1,309.7,286.1z"/>
	<path class="st0" d="M339.5,267.1c7.5,0,12.8,5.3,12.8,12c0,6.9-5.3,12.3-12.8,12.3c-7.5,0-12.8-5.4-12.8-12.3
		C326.7,272.4,332,267.1,339.5,267.1z M339.5,286.1c3.9,0,6.6-3,6.6-6.8s-2.7-6.8-6.6-6.8c-3.9,0-6.6,3-6.6,6.8
		S335.6,286.1,339.5,286.1z"/>
	<path class="st0" d="M357.1,289.5V269c0-0.9,0.5-1.4,1.4-1.4h1.5c0.8,0,1.4,0.4,1.6,1.1l0.1,0.3c0.3,0.9,0.9,1.1,1.7,0.6
		c2.7-1.6,5.2-2.5,8.6-2.5c5.2,0,8.2,3.4,8.2,9.5v12.9c0,0.9-0.5,1.4-1.4,1.4h-3.4c-0.9,0-1.4-0.5-1.4-1.4v-12.6
		c0-2.6-1.4-4.3-4.1-4.3c-1.9,0-4,0.9-5.9,2.1c-0.6,0.4-0.8,0.9-0.8,1.5v13.3c0,0.9-0.5,1.4-1.4,1.4h-3.3
		C357.6,291,357.1,290.4,357.1,289.5z"/>
</g>
<path class="st1" d="M158.6,186.1l-57,1.8L114.6,0l148.6,9.6l5.9,173.2l-59.2,2l-24.4,49L158.6,186.1z M185.1,185.3l18.2-34.3
	l36.6-1.2l-1.4-40.4l-61.8,2.1l5.8-84l-40.3-2.8l-8.9,128.6l33.9-1.3L185.1,185.3z M195.1,38.4l-3.7,57.9l53.9-1.8l-1-30.8
	l-19.9,0.7l1.5-23.9C215.6,39.7,205.3,39,195.1,38.4z"/>
</svg>
