<?xml version="1.0" encoding="utf-8"?>
<!-- Generator: Adobe Illustrator 22.0.1, SVG Export Plug-In . SVG Version: 6.00 Build 0)  -->
<svg version="1.1" id="Layer_1" xmlns="http://www.w3.org/2000/svg" xmlns:xlink="http://www.w3.org/1999/xlink" x="0px" y="0px"
	 width="303px" height="72.4px" viewBox="0 0 303 72.4" style="enable-background:new 0 0 303 72.4;" xml:space="preserve">
<style type="text/css">
	.st0{fill-rule:evenodd;clip-rule:evenodd;fill:#FFFFFF;}
</style>
<g>
	<path class="st0" d="M94.3,49.1c-2.8-5-7.5-7-12.9-7c-8,0-14.3,5.6-14.3,15.1c0,9.7,5.9,15.1,14.6,15.1c5.5,0,10.2-3,12.8-7.6
		l-6.1-3.1c-1.4,3.2-3.4,4.2-6,4.2c-4.5,0-6.5-3.7-6.5-8.7c0-4.9,1.7-8.7,6.5-8.7c1.3,0,3.9,0.7,5.4,3.9L94.3,49.1z"/>
	<path class="st0" d="M109.7,48.6c4.8,0,6.9,3.7,6.9,8.3c0,5.2-2.1,9-6.9,9c-4.8,0-6.9-3.7-6.9-8.7
		C102.9,52.3,104.9,48.6,109.7,48.6z M109.7,42.1c-9,0-15.3,5.5-15.3,15.1c0,9.7,6.3,15.1,15.3,15.1s15.3-5.5,15.3-15.1
		C125.1,47.5,118.7,42.1,109.7,42.1z"/>
	<path class="st0" d="M126.8,71.6h8.4V53.7c0-2.6,1.1-4.8,4.5-4.8c3.2,0,4.1,1.9,4.1,4.7v18h8.4V53.9c0-2.9,1.5-5,4.3-5
		c3.2,0,4.3,1.8,4.3,5.9v16.8h8.4v-22c0-6.6-6.1-7.6-8.9-7.6c-3.4,0-6.5,1-9.2,3.8c-1.9-2.5-4.3-3.8-7.6-3.8c-2.6,0-6.2,0.8-8.3,3.3
		v-2.5h-8.4V71.6z"/>
	<path class="st0" d="M172,71.6h8.4V53.7c0-2.6,1.1-4.8,4.5-4.8c3.2,0,4.1,1.9,4.1,4.7v18h8.4V53.9c0-2.9,1.5-5,4.3-5
		c3.2,0,4.3,1.8,4.3,5.9v16.8h8.4v-22c0-6.6-6.1-7.6-8.9-7.6c-3.4,0-6.5,1-9.2,3.8c-1.9-2.5-4.3-3.8-7.6-3.8c-2.6,0-6.2,0.8-8.3,3.3
		v-2.5H172V71.6z"/>
	<path class="st0" d="M231.5,48.6c4.8,0,6.9,3.7,6.9,8.3c0,5.2-2.1,9-6.9,9c-4.8,0-6.9-3.7-6.9-8.7
		C224.7,52.3,226.7,48.6,231.5,48.6z M231.5,42.1c-9,0-15.3,5.5-15.3,15.1c0,9.7,6.3,15.1,15.3,15.1c9,0,15.3-5.5,15.3-15.1
		C246.9,47.5,240.5,42.1,231.5,42.1z"/>
	<path class="st0" d="M249.1,71.6h8.4V53.7c0-2.6,1.1-4.8,4.5-4.8c3.2,0,4.1,1.9,4.1,4.7v18h8.4V50.4c0-4.3-1.9-8.3-8.7-8.3
		c-2.6,0-6.2,0.8-8.3,3.3v-2.5h-8.4V71.6z"/>
	<path class="st0" d="M302.8,46.2c-3.9-2.6-8.3-4.2-12.7-4.2c-5.8,0-12.2,2.8-12.2,10.1c0,10.2,17,6.7,17,11.1
		c0,2.6-3.2,2.9-4.6,2.9c-3.8,0-6.5-1.6-9.1-4.1l-5.2,4.5c4.2,3.9,7.8,5.7,14.1,5.7c6.3,0,13-2.7,13-10.3c0-10.8-17-6.7-17-11.6
		c0-1.5,1.5-2.2,3.6-2.2c2.7,0,6.3,1.1,8,3.1L302.8,46.2z"/>
	<path class="st0" d="M94.3,16c-2.8-5-7.5-7-12.9-7c-8,0-14.3,5.6-14.3,15.1c0,9.7,5.9,15.1,14.6,15.1c5.5,0,10.2-3,12.8-7.6
		l-6.1-3.1c-1.4,3.2-3.4,4.2-6,4.2c-4.5,0-6.5-3.7-6.5-8.7c0-4.9,1.7-8.7,6.5-8.7c1.3,0,3.9,0.7,5.4,3.9L94.3,16z"/>
	<path class="st0" d="M96.3,38.5h8.4V21.9c0-3.2,2-4.1,7-4.7l0.9-0.1l-0.1-7.5c-3,0.2-6.1,1.3-7.9,3V9.7h-8.4V38.5z"/>
	<path class="st0" d="M141.4,25.9C141.3,17,137.8,9,127.3,9c-8.8,0-14.1,5.8-14.1,16c0,8.1,5.2,14.3,14.1,14.3c6.4,0,11-2.5,14-8
		l-6.3-3.3c-2.4,3.5-3.9,5.1-7,5.1c-2.7,0-6.2-1.7-6.3-7.2H141.4z M121.5,20.7c0.4-3.8,3.3-5.5,5.7-5.5c2.4,0,5.5,1.3,5.7,5.5H121.5
		z"/>
	<path class="st0" d="M160.7,26.5c0,4.4-2.5,6.6-5.8,6.6c-2.1,0-3.9-1-3.9-3.2c0-2.3,1.9-3.1,4.1-3.7l5.7-1.6V26.5z M168.9,17.3
		c-0.1-6.5-5-8.3-12.8-8.3c-3.9,0-11.6,0.8-11.8,9h8.1c0.4-2.9,1.7-3.8,4.4-3.8c2.3,0,4,0.9,4,3.1v2.4l-3.1,0.4
		c-9.2,1.3-14.8,3.7-14.8,10.7c0,5.5,4.1,8.5,9.6,8.5c3,0,7.2-1.5,8.7-3.7h0.1c0.1,1,0.2,2,0.5,3h7.8c-0.7-1.8-0.8-4-0.8-6V17.3z"/>
	<path class="st0" d="M188.7,10.3h-5V1.9h-8.4v8.3h-4.1v5.2h4.1v15.1c0,4.2,1,8.7,8.2,8.7c1.8,0,4.3-0.2,5.4-0.3v-6.7
		c-0.4,0.1-1.6,0.2-2.5,0.2c-1.5,0-2.7-0.6-2.7-2.9V15.5h5V10.3z"/>
	<path class="st0" d="M191.9,9.7v28.8h8.4V9.7H191.9z M200.3,6.5V0h-8.4v6.5H200.3z"/>
	<polygon class="st0" points="211.7,38.5 220.2,38.5 230,9.7 221,9.7 216.1,30.1 215.9,30.1 211,9.7 201.9,9.7 	"/>
	<path class="st0" d="M257.3,25.9C257.2,17,253.6,9,243.1,9c-8.8,0-14.1,5.8-14.1,16c0,8.1,5.2,14.3,14.1,14.3c6.4,0,11-2.5,14-8
		l-6.3-3.3c-2.4,3.5-3.9,5.1-7,5.1c-2.7,0-6.2-1.7-6.3-7.2H257.3z M237.4,20.7c0.4-3.8,3.3-5.5,5.7-5.5s5.5,1.3,5.7,5.5H237.4z"/>
	<g>
		<path class="st0" d="M31.6,8.5c-8.7,0-16.3,3.2-22.2,9.2C3.3,23.9,0,31.9,0,40.2c0,8.4,3.2,16.2,9.3,22.3c6.1,6.1,14,9.4,22.3,9.4
			c8.3,0,16.4-3.3,22.7-9.5c5.9-5.8,9-13.5,9-22.2c0-8.6-3.1-16.4-9.1-22.4C48.1,11.7,40.3,8.5,31.6,8.5z M31.7,14.2
			c7.1,0,13.5,2.7,18.4,7.6c4.9,4.9,7.5,11.3,7.5,18.3c0,7.1-2.5,13.4-7.4,18.1c-5.1,5-11.7,7.7-18.5,7.7c-6.9,0-13.3-2.7-18.2-7.6
			C8.5,53.5,5.7,47,5.7,40.2c0-6.9,2.8-13.4,7.7-18.4C18.3,16.8,24.6,14.2,31.7,14.2z"/>
		<path class="st0" d="M31.3,34.9c-1.8-3.3-4.8-4.6-8.4-4.6c-5.2,0-9.3,3.7-9.3,9.8c0,6.3,3.9,9.8,9.4,9.8c3.6,0,6.6-2,8.3-4.9
			l-3.9-2c-0.9,2.1-2.2,2.7-3.9,2.7c-2.9,0-4.2-2.4-4.2-5.6c0-3.2,1.1-5.6,4.2-5.6c0.8,0,2.5,0.5,3.5,2.6L31.3,34.9z"/>
		<path class="st0" d="M49.6,34.9c-1.8-3.3-4.8-4.6-8.4-4.6c-5.2,0-9.3,3.7-9.3,9.8c0,6.3,3.9,9.8,9.4,9.8c3.6,0,6.6-2,8.3-4.9
			l-3.9-2c-0.9,2.1-2.2,2.7-3.9,2.7c-2.9,0-4.2-2.4-4.2-5.6c0-3.2,1.1-5.6,4.2-5.6c0.8,0,2.5,0.5,3.5,2.6L49.6,34.9z"/>
	</g>
</g>
</svg>
