<?xml version="1.0" standalone="no"?>
<!DOCTYPE svg PUBLIC "-//W3C//DTD SVG 20010904//EN"
 "http://www.w3.org/TR/2001/REC-SVG-20010904/DTD/svg10.dtd">
<svg version="1.0" xmlns="http://www.w3.org/2000/svg"
 width="700.000000pt" height="700.000000pt" viewBox="0 0 700.000000 700.000000"
 preserveAspectRatio="xMidYMid meet">
<metadata>
Created by potrace 1.11, written by Peter Selinger 2001-2013
</metadata>
<g transform="translate(0.000000,700.000000) scale(0.100000,-0.100000)"
fill="#000000" stroke="none">
<path d="M1449 6878 c-1 -7 -2 -24 -4 -38 -1 -14 -5 -74 -9 -135 -4 -60 -9
-130 -11 -155 -3 -39 -13 -184 -20 -290 -3 -47 -16 -234 -20 -290 -2 -25 -7
-90 -10 -145 -3 -55 -8 -120 -10 -145 -2 -25 -7 -88 -10 -140 -3 -52 -8 -122
-10 -155 -3 -33 -7 -89 -10 -125 -3 -36 -7 -100 -10 -142 -3 -43 -7 -113 -10
-155 -12 -184 -16 -241 -20 -288 -5 -53 -15 -193 -20 -285 -5 -81 -15 -237
-20 -300 -2 -30 -7 -89 -10 -130 -3 -41 -8 -111 -10 -155 -3 -44 -7 -111 -10
-150 -3 -38 -8 -99 -10 -135 -3 -36 -7 -103 -10 -150 -3 -47 -8 -112 -10 -145
-2 -33 -7 -100 -10 -150 -3 -49 -8 -112 -10 -140 -3 -27 -7 -88 -10 -135 -3
-47 -7 -112 -10 -145 -2 -33 -7 -103 -11 -155 -3 -52 -7 -113 -9 -135 -2 -22
-6 -87 -10 -145 -3 -58 -8 -127 -10 -155 -2 -27 -6 -90 -10 -140 -3 -49 -8
-115 -10 -145 -3 -30 -7 -95 -10 -145 -4 -49 -8 -113 -10 -141 l-5 -51 73 2
c265 8 556 17 637 20 52 2 196 7 320 10 124 4 263 8 310 10 88 4 259 7 297 6
17 -1 33 -21 70 -88 26 -49 53 -97 60 -108 7 -11 15 -26 19 -34 4 -8 32 -58
62 -110 30 -53 69 -123 87 -156 19 -33 74 -132 124 -220 50 -88 152 -271 228
-407 76 -136 141 -248 144 -248 4 0 165 317 358 705 l351 705 52 1 c29 1 85 2
123 4 39 1 156 5 260 9 105 4 253 9 330 12 211 7 350 12 565 19 173 6 236 9
356 14 l32 1 -3 53 c-2 28 -6 147 -10 262 -4 116 -8 248 -10 295 -2 47 -6 180
-10 296 -4 117 -8 252 -10 300 -2 49 -6 177 -10 284 -3 107 -8 245 -10 305 -2
61 -7 196 -10 300 -3 105 -8 246 -11 315 -2 69 -7 190 -9 270 -3 80 -7 217
-10 305 -11 327 -15 434 -20 585 -11 320 -15 439 -20 590 -3 85 -7 214 -10
285 -2 72 -7 220 -11 330 -4 110 -6 208 -6 217 1 25 -8 28 -85 33 -156 10
-242 16 -313 21 -91 6 -173 11 -305 19 -55 3 -122 8 -150 10 -49 4 -188 13
-315 20 -36 2 -101 7 -145 10 -44 3 -115 7 -157 10 -92 6 -207 13 -298 20 -36
2 -110 7 -165 10 -55 3 -125 8 -155 10 -30 2 -98 7 -150 10 -52 3 -118 8 -146
10 -29 2 -101 7 -160 10 -60 3 -136 7 -169 10 -111 9 -189 14 -295 20 -58 4
-125 8 -150 10 -25 2 -97 6 -160 10 -63 3 -135 8 -160 11 -25 2 -94 6 -155 9
-60 3 -128 8 -150 10 -38 3 -127 9 -310 21 -44 2 -110 7 -147 10 -51 3 -68 1
-69 -8z m946 -723 c161 -10 216 -14 285 -19 56 -5 116 -9 300 -21 156 -10 261
-18 295 -20 22 -2 64 -5 93 -6 l53 -2 -6 -101 c-3 -56 -7 -121 -10 -146 -2
-25 -7 -88 -10 -140 -4 -52 -8 -120 -10 -150 -10 -148 -16 -241 -20 -300 -2
-36 -7 -99 -10 -140 -3 -41 -7 -104 -10 -140 -2 -36 -6 -97 -9 -135 -3 -39 -8
-110 -11 -160 -3 -49 -8 -115 -10 -145 -2 -30 -7 -100 -10 -155 -4 -55 -8
-118 -10 -140 -2 -22 -6 -92 -10 -155 -4 -63 -8 -131 -10 -150 -2 -19 -7 -84
-10 -145 -4 -60 -8 -114 -9 -120 -1 -13 161 -11 714 10 41 2 165 6 275 10 110
4 241 8 290 10 50 2 185 7 301 10 l211 7 0 -33 c0 -19 3 -119 7 -224 9 -253
13 -361 21 -605 4 -113 8 -228 9 -256 2 -51 2 -52 -28 -51 -17 0 -119 -3 -226
-7 -250 -8 -524 -18 -620 -21 -41 -2 -100 -3 -131 -4 -56 -1 -57 -1 -79 -43
-12 -24 -35 -65 -50 -93 -15 -27 -55 -104 -90 -170 -34 -66 -75 -142 -90 -170
-15 -27 -51 -95 -80 -150 -192 -368 -192 -367 -204 -348 -12 17 -55 97 -143
263 -83 156 -308 577 -334 625 l-28 50 -73 -1 c-66 -1 -278 -9 -483 -19 -44
-2 -149 -6 -234 -10 -85 -3 -157 -6 -160 -7 -36 -4 -35 -10 -16 252 2 19 6 82
9 140 4 58 9 125 11 150 2 25 7 88 10 140 3 52 8 120 10 150 5 71 14 206 20
295 2 39 7 104 10 145 3 41 7 104 10 140 2 36 7 103 10 150 3 47 8 114 10 150
3 36 7 101 10 145 3 44 7 107 10 140 2 33 7 98 10 145 3 47 8 112 10 145 3 33
7 103 10 155 4 52 8 118 10 145 2 28 6 91 9 140 4 50 9 118 11 153 3 34 8 99
10 145 3 45 7 105 10 132 2 28 7 100 10 160 4 61 8 130 11 155 2 25 6 90 10
145 3 55 8 103 10 107 3 4 12 5 22 3 9 -1 62 -6 117 -10z m1525 -389 c63 -4
142 -8 175 -11 33 -2 103 -7 155 -9 52 -3 130 -8 174 -12 81 -6 170 -12 219
-13 l28 -1 -6 -132 c-4 -73 -8 -151 -10 -173 -2 -22 -6 -89 -10 -150 -3 -60
-8 -137 -10 -170 -2 -33 0 -62 6 -65 5 -4 37 -5 72 -4 34 2 154 6 266 9 113 3
208 8 213 11 14 9 17 -17 22 -206 6 -193 16 -509 20 -618 2 -35 0 -65 -3 -67
-4 -2 -85 -6 -181 -10 -96 -3 -227 -8 -290 -10 -63 -2 -203 -7 -310 -11 -107
-3 -233 -7 -280 -9 -47 -2 -177 -6 -290 -10 l-205 -6 1 33 c1 18 5 71 8 118
11 144 16 211 21 305 5 92 12 200 20 315 2 36 7 108 10 160 12 187 25 396 30
470 2 30 7 102 10 160 7 106 11 124 23 116 4 -2 59 -7 122 -10z"/>
</g>
</svg>
