<?xml version="1.0" encoding="UTF-8" standalone="no"?><!DOCTYPE svg PUBLIC "-//W3C//DTD SVG 1.1//EN" "http://www.w3.org/Graphics/SVG/1.1/DTD/svg11.dtd"><svg width="100%" height="100%" viewBox="0 0 221 43" version="1.1" xmlns="http://www.w3.org/2000/svg" xmlns:xlink="http://www.w3.org/1999/xlink" xml:space="preserve" xmlns:serif="http://www.serif.com/" style="fill-rule:evenodd;clip-rule:evenodd;stroke-linejoin:round;stroke-miterlimit:1.41421;"><g id="Error-made-this" serif:id="Error made this"><g><path d="M111.134,28.626l0.817,0c0.319,0 0.499,-0.179 0.499,-0.498l0,-10.011c0,-0.339 0.239,-0.419 0.438,-0.14l3.909,5.763c0.199,0.28 0.459,0.419 0.798,0.419l0.02,0c0.339,0 0.598,-0.119 0.797,-0.419l3.869,-5.823c0.199,-0.279 0.439,-0.219 0.439,0.12l0,10.091c0,0.319 0.179,0.498 0.498,0.498l0.818,0c0.319,0 0.498,-0.179 0.498,-0.498l0,-13.361c0,-0.439 -0.259,-0.698 -0.698,-0.698l-0.398,0c-0.379,0 -0.639,0.159 -0.838,0.458l-4.726,7.1c-0.14,0.219 -0.359,0.219 -0.499,0l-4.706,-7.1c-0.199,-0.319 -0.459,-0.458 -0.838,-0.458l-0.498,0c-0.439,0 -0.698,0.259 -0.698,0.698l0,13.361c0,0.319 0.179,0.498 0.499,0.498Z" style="fill:#595959;fill-rule:nonzero;"/><path d="M127.326,28.626l0.957,0c0.28,0 0.459,-0.12 0.579,-0.359l1.176,-2.433c0.08,-0.159 0.2,-0.239 0.379,-0.239l6.441,0c0.18,0 0.28,0.06 0.359,0.239l1.097,2.413c0.12,0.259 0.299,0.379 0.578,0.379l1.017,0c0.379,0 0.519,-0.219 0.359,-0.578l-6.361,-13.8c-0.12,-0.239 -0.319,-0.379 -0.598,-0.379l-0.838,0c-0.379,0 -0.538,0.22 -0.379,0.579l0.698,1.515c0.08,0.2 0.08,0.339 -0.02,0.539l-5.803,11.526c-0.179,0.359 -0.02,0.598 0.359,0.598Zm3.909,-5.264l2.313,-4.747c0.12,-0.259 0.319,-0.239 0.439,0l2.133,4.747c0.1,0.239 -0.019,0.378 -0.259,0.378l-4.387,0c-0.239,0 -0.339,-0.159 -0.239,-0.378Z" style="fill:#595959;fill-rule:nonzero;"/><path d="M143.26,28.626l4.845,0c4.248,0 7.499,-2.931 7.499,-7.279c0,-4.287 -3.231,-7.278 -7.499,-7.278l-4.845,0c-0.359,0 -0.559,0.199 -0.559,0.558l0,13.441c0,0.359 0.2,0.558 0.559,0.558Zm1.396,-2.054l0,-10.469c0,-0.22 0.139,-0.359 0.359,-0.359l3.09,0c2.892,0 5.504,1.934 5.504,5.603c0,3.65 -2.612,5.584 -5.504,5.584l-3.09,0c-0.22,0 -0.359,-0.14 -0.359,-0.359Z" style="fill:#595959;fill-rule:nonzero;"/><path d="M159.133,28.626l7.179,0c0.319,0 0.499,-0.179 0.499,-0.498l0,-0.718c0,-0.319 -0.18,-0.499 -0.499,-0.499l-5.284,0c-0.319,0 -0.519,-0.199 -0.519,-0.518l0,-3.63c0,-0.319 0.18,-0.518 0.519,-0.518l5.444,0c0.319,0 0.498,-0.18 0.498,-0.499l0,-0.718c0,-0.319 -0.179,-0.498 -0.498,-0.498l-5.444,0c-0.319,0 -0.519,-0.18 -0.519,-0.519l0,-3.709c0,-0.319 0.2,-0.518 0.519,-0.518l4.985,0c0.319,0 0.499,-0.18 0.499,-0.499l0,-0.718c0,-0.319 -0.18,-0.498 -0.499,-0.498l-6.88,0c-0.359,0 -0.558,0.199 -0.558,0.558l0,13.441c0,0.359 0.199,0.558 0.558,0.558Z" style="fill:#595959;fill-rule:nonzero;"/><path d="M173.372,15.903l3.529,0c0.319,0 0.499,0.18 0.499,0.499l0,11.726c0,0.319 0.179,0.498 0.498,0.498l1.037,0c0.319,0 0.499,-0.179 0.499,-0.498l0,-11.726c0,-0.319 0.179,-0.499 0.498,-0.499l3.63,0c0.319,0 0.498,-0.179 0.498,-0.498l0,-0.838c0,-0.319 -0.179,-0.498 -0.498,-0.498l-10.19,0c-0.319,0 -0.499,0.179 -0.499,0.498l0,0.838c0,0.319 0.18,0.498 0.499,0.498Z" style="fill:#595959;fill-rule:nonzero;"/><path d="M186.832,28.626l0.957,0c0.32,0 0.499,-0.179 0.499,-0.498l0,-5.265c0,-0.359 0.199,-0.558 0.558,-0.558l7.618,0c0.359,0 0.558,0.199 0.558,0.558l0,5.265c0,0.319 0.18,0.498 0.499,0.498l0.957,0c0.319,0 0.499,-0.179 0.499,-0.498l0,-13.561c0,-0.319 -0.18,-0.498 -0.499,-0.498l-0.957,0c-0.319,0 -0.499,0.179 -0.499,0.498l0,5.325c0,0.359 -0.199,0.558 -0.558,0.558l-7.618,0c-0.359,0 -0.558,-0.199 -0.558,-0.558l0,-5.325c0,-0.319 -0.179,-0.498 -0.499,-0.498l-0.957,0c-0.319,0 -0.498,0.179 -0.498,0.498l0,13.561c0,0.319 0.179,0.498 0.498,0.498Z" style="fill:#595959;fill-rule:nonzero;"/><path d="M202.307,28.626l5.225,0c0.319,0 0.498,-0.179 0.498,-0.498l0,-0.698c0,-0.319 -0.179,-0.499 -0.498,-0.499l-1.316,0c-0.2,0 -0.319,-0.12 -0.319,-0.319l0,-10.509c0,-0.2 0.119,-0.319 0.319,-0.319l1.316,0c0.319,0 0.498,-0.18 0.498,-0.499l0,-0.718c0,-0.319 -0.179,-0.498 -0.498,-0.498l-5.225,0c-0.319,0 -0.499,0.179 -0.499,0.498l0,0.718c0,0.319 0.18,0.499 0.499,0.499l1.316,0c0.2,0 0.319,0.119 0.319,0.319l0,10.509c0,0.199 -0.119,0.319 -0.319,0.319l-1.316,0c-0.319,0 -0.499,0.18 -0.499,0.499l0,0.698c0,0.319 0.18,0.498 0.499,0.498Z" style="fill:#595959;fill-rule:nonzero;"/><path d="M209.705,24.977c0.818,2.413 2.852,3.849 5.584,3.849c2.752,0 5.065,-1.576 5.065,-4.009c0,-5.145 -8.056,-3.43 -8.056,-7.119c0,-1.256 1.156,-2.094 2.832,-2.094c1.475,0 2.532,0.798 3.071,2.074c0.099,0.259 0.279,0.399 0.558,0.399l0.917,0c0.339,0 0.539,-0.219 0.439,-0.558c-0.638,-2.154 -2.393,-3.65 -4.985,-3.65c-2.812,0 -4.786,1.556 -4.786,3.829c0,5.424 8.036,3.59 8.036,7.159c0,1.276 -1.296,2.234 -3.091,2.234c-1.615,0 -2.991,-0.738 -3.649,-2.274c-0.1,-0.259 -0.279,-0.399 -0.559,-0.399l-0.957,0c-0.359,0 -0.538,0.22 -0.419,0.559Z" style="fill:#595959;fill-rule:nonzero;"/></g><g><path d="M101.208,5.901c0.355,-0.949 0.641,-1.915 0.458,-2.65c-0.106,-0.419 -0.279,-0.749 -0.779,-0.995c-0.307,-0.134 -0.558,-0.155 -0.893,-0.067c-0.763,0.199 -1.057,1.018 -1.461,2.257l-1.38,-0.789c-0.352,-0.19 -0.692,-0.233 -1.072,-0.133c-0.65,0.17 -0.975,0.943 -0.829,1.523c0.112,0.441 0.293,0.695 0.592,1.007c0.529,0.534 1.228,1.066 1.651,1.371c0,0 -0.346,0.806 -0.498,1.238c-0.227,0.643 -0.366,1.097 -0.248,1.564c0.113,0.452 0.51,0.766 0.961,0.763c0.697,-0.005 1.46,-0.747 2.213,-2.15c0.583,0.26 1.372,0.54 2.008,0.535c0.897,-0.006 1.243,-0.583 1.347,-0.832c0.14,-0.324 0.172,-0.664 0.091,-0.98c-0.214,-0.846 -1.533,-1.376 -2.161,-1.662" style="fill:#f04d44;fill-rule:nonzero;"/><path d="M71.983,23.929c-0.249,0.064 -0.456,-0.152 -0.556,-0.547c-0.491,-1.948 0.411,-5.855 0.806,-7.13c0.368,0.751 0.794,1.397 1.268,1.943c-0.117,1.49 -0.41,3.011 -0.588,3.719c-0.295,1.231 -0.54,1.912 -0.93,2.015m-46.002,-17.072c0.604,-0.156 1.456,-0.071 1.658,0.722c0.408,1.615 -1.467,4.136 -5.193,6.303c-0.297,-3.758 1.702,-6.548 3.535,-7.025m70.011,5.988c-1.528,0.399 -2.403,4.132 -3.643,4.459c-0.287,0.073 -0.59,-0.078 -0.67,-0.403c-0.303,-1.194 1.274,-4.686 0.372,-8.265c-0.464,-1.842 -2.245,-3.187 -4.376,-2.633c-0.935,0.245 -1.579,0.69 -2.078,1.176c-0.036,-0.206 -0.075,-0.408 -0.124,-0.599c-0.51,-2.024 -2.007,-3.598 -4.102,-3.051c-2.416,0.63 -3.61,3.1 -3.025,5.411c0.411,1.63 1.456,2.484 2.597,3.028l-0.043,0.043c0.002,1.007 -0.224,1.95 -0.667,2.692c-0.564,-1.805 -1.568,-3.286 -2.945,-4.252c-1.574,-1.133 -3.496,-1.4 -5.343,-0.917c-2.381,0.62 -4.25,2.072 -5.571,4.034c-1.862,2.772 -2.576,6.468 -1.931,9.928c-0.604,1.519 -1.298,2.664 -1.787,2.791c-0.32,0.083 -0.356,-0.061 -0.391,-0.205c-0.394,-1.554 1.41,-5.955 0.443,-9.785c-0.466,-1.843 -1.817,-3.3 -4.232,-2.669c-1.988,0.519 -2.679,1.951 -3.761,2.583c-0.071,-0.533 -0.168,-1.045 -0.289,-1.528c-0.512,-2.021 -2.077,-3.578 -4.211,-3.023c-2.414,0.631 -3.715,3.13 -3.095,5.586c0.477,1.884 1.803,2.853 3.253,3.415c0.439,3.355 -2.479,9.48 -3.631,9.78c-0.142,0.038 -0.356,-0.061 -0.392,-0.206c-0.357,-1.409 1.696,-6.026 0.728,-9.857c-0.464,-1.843 -1.923,-3.273 -4.198,-2.679c-1.925,0.502 -2.587,1.53 -3.461,2.106c-0.065,-0.386 -0.139,-0.767 -0.235,-1.142c-0.509,-2.023 -2.042,-3.587 -4.136,-3.043c-2.132,0.558 -3.799,2.957 -3.213,5.271c0.487,1.933 1.671,2.964 2.988,3.567c0.597,4.141 -3.25,9.943 -8.011,11.185c-2.876,0.752 -5.578,-0.353 -6.354,-3.425c-0.649,-2.566 0.628,-6.272 2.198,-8.212c1.394,0.354 2.749,0.373 3.817,0.095c3.197,-0.836 4.626,-2.826 4.041,-5.138c-0.392,-1.554 -2.031,-2.937 -4.765,-2.224c-0.423,0.111 -0.85,0.246 -1.279,0.401c5.357,-3.23 9.904,-7.788 8.793,-12.183c-0.658,-2.603 -3.207,-4.904 -7.861,-3.688c-6.194,1.618 -11.636,8.583 -9.952,15.458c-0.108,0.03 -0.213,0.06 -0.322,0.089c-2.558,0.667 -7.702,1.433 -8.478,-1.638c-0.539,-2.133 1.392,-3.484 2.456,-3.763c2.559,-0.667 3.803,0.51 4.87,0.232c0.602,-0.157 0.805,-0.712 0.649,-1.325c-0.512,-2.023 -3.598,-4.646 -8.143,-3.459c-4.228,1.104 -7.113,4.976 -5.99,9.422c1.204,4.769 7.354,6.783 14.921,4.81c0.593,-0.156 1.215,-0.346 1.858,-0.564c0.207,0.261 0.423,0.51 0.649,0.742c-3.879,3.668 -6.481,8.968 -5.099,14.442c1.314,5.202 6.482,8.128 12.237,6.626c7.623,-1.989 13.052,-9.346 14.307,-16.67c0.316,0.122 0.523,0.273 0.58,0.497c0.429,1.699 -1.27,4.569 -0.531,7.495c0.511,2.023 2.778,3.203 5.478,2.499c5.779,-1.508 9.004,-8.244 9.795,-14.449c0.335,0.111 0.552,0.25 0.604,0.447c0.429,1.701 -1.093,4.372 -0.316,7.441c0.547,2.168 2.99,3.148 5.583,2.472c2.477,-0.647 4.315,-2.335 5.677,-4.482c1.586,1.881 3.994,2.61 6.698,1.906c2.701,-0.708 4.878,-2.43 6.27,-4.719c0.861,-1.452 1.411,-3.152 1.572,-4.985c1.866,-1.01 3.299,-3.295 4.134,-5.842c0.45,1.847 -1.211,5.388 -0.558,7.981c0.511,2.024 2.495,3.124 5.371,2.373c5.437,-1.418 7.829,-8.437 7.245,-10.75c-0.155,-0.615 -0.547,-0.819 -0.975,-0.71" style="fill:#4d4d4d;fill-rule:nonzero;"/></g></g></svg>