<?xml version="1.0" encoding="utf-8"?>
<!-- Generator: Adobe Illustrator 22.0.1, SVG Export Plug-In . SVG Version: 6.00 Build 0)  -->
<svg version="1.1" id="Layer_1" xmlns="http://www.w3.org/2000/svg" xmlns:xlink="http://www.w3.org/1999/xlink" x="0px" y="0px"
	 width="15.7px" height="10.8px" viewBox="0 0 15.7 10.8" style="enable-background:new 0 0 15.7 10.8;" xml:space="preserve">
<style type="text/css">
	.st0{fill:#FFFFFF;}
</style>
<g>
	<path class="st0" d="M15.4,5c-1-1.3-2.3-2.3-3.7-3l-0.6,1.1c1.1,0.5,2.2,1.3,3,2.2c-1.4,1.7-3.4,2.7-5.6,2.9
		c1.3-0.3,2.3-1.5,2.3-2.9c0-0.4-0.1-0.8-0.2-1.2l-3,5.4c0.1,0,0.2,0,0.4,0c3,0,5.8-1.4,7.6-3.9l0.3-0.4L15.4,5z"/>
	<path class="st0" d="M11,0.6L9.9,0L9.2,1.2C8.7,1.2,8.3,1.1,7.9,1.1c-3,0-5.8,1.4-7.6,3.9L0,5.4l0.3,0.4C1.4,7.3,3,8.5,4.8,9.1
		l-0.6,1l1.1,0.6L11,0.6L11,0.6z M1.6,5.4C3,3.8,4.9,2.7,7,2.5C5.7,2.8,4.8,4,4.8,5.4c0,0.8,0.4,1.6,0.9,2.2L5.5,7.9
		C4,7.5,2.6,6.6,1.6,5.4z M6.4,6.3C6.2,6,6.1,5.7,6.1,5.4c0-0.9,0.8-1.7,1.7-1.7c0,0,0,0,0.1,0L6.4,6.3z"/>
</g>
</svg>
