<?xml version="1.0" encoding="utf-8"?>
<!-- Generator: Adobe Illustrator 22.0.1, SVG Export Plug-In . SVG Version: 6.00 Build 0)  -->
<svg version="1.1" id="Layer_1" xmlns="http://www.w3.org/2000/svg" xmlns:xlink="http://www.w3.org/1999/xlink" x="0px" y="0px"
	 width="16.1px" height="20px" viewBox="0 0 16.1 20" style="enable-background:new 0 0 16.1 20;" xml:space="preserve">
<style type="text/css">
	.st0{fill:none;stroke:#FFFFFF;stroke-width:3.8377;stroke-linecap:square;stroke-miterlimit:1.5;}
	.st1{fill-rule:evenodd;clip-rule:evenodd;fill:#FFFFFF;}
</style>
<line class="st0" x1="11.1" y1="13.8" x2="13.4" y2="17.4"/>
<path class="st1" d="M7.8,0c3.1,0.1,6,2.2,7,5.1c1,3,0,6.4-2.5,8.4c-2.5,2-6.1,2.1-8.7,0.4c-2.7-1.7-4-5-3.3-8.1
	C1,2.4,4.2-0.1,7.8,0z M7.5,3.8C4,3.9,2.6,8.4,5.3,10.5c2.7,2.1,6.7-0.4,5.9-3.8C10.8,5,9.2,3.8,7.5,3.8z"/>
</svg>
