<?xml version="1.0" encoding="utf-8"?>
<!-- Generator: Adobe Illustrator 22.0.1, SVG Export Plug-In . SVG Version: 6.00 Build 0)  -->
<svg version="1.1" id="Layer_1" xmlns="http://www.w3.org/2000/svg" xmlns:xlink="http://www.w3.org/1999/xlink" x="0px" y="0px"
	 width="21.7px" height="21.8px" viewBox="0 0 21.7 21.8" style="enable-background:new 0 0 21.7 21.8;" xml:space="preserve">
<style type="text/css">
	.st0{fill-rule:evenodd;clip-rule:evenodd;fill:#FFFFFF;}
</style>
<path class="st0" d="M11.8,21.8H0V10.1h11.8V21.8L11.8,21.8z M1.9,12v7.9h8V12H1.9L1.9,12z"/>
<path class="st0" d="M21.7,9.4h-8.3V1.1h8.3V9.4L21.7,9.4z M15.4,3.1v4.4h4.5V3.1H15.4L15.4,3.1z"/>
<path class="st0" d="M10,6.7H3.3V0H10V6.7L10,6.7z M5.2,1.9v2.9h2.9V1.9H5.2L5.2,1.9z"/>
<path class="st0" d="M21.7,19.8h-8.3v-8.3h8.3V19.8L21.7,19.8z M15.4,13.5v4.4h4.5v-4.4H15.4L15.4,13.5z"/>
</svg>
