<?xml version="1.0" encoding="UTF-8" standalone="no"?><!DOCTYPE svg PUBLIC "-//W3C//DTD SVG 1.1//EN" "http://www.w3.org/Graphics/SVG/1.1/DTD/svg11.dtd"><svg width="100%" height="100%" viewBox="0 0 12 12" version="1.1" xmlns="http://www.w3.org/2000/svg" xmlns:xlink="http://www.w3.org/1999/xlink" xml:space="preserve" xmlns:serif="http://www.serif.com/" style="fill-rule:evenodd;clip-rule:evenodd;stroke-linejoin:round;stroke-miterlimit:1.41421;"><g id="icon-collections"><path d="M6.301,11.946l-6.157,0l0,-6.134l6.157,0l0,6.134Zm-5.157,-5.134l0,4.134l4.157,0l0,-4.134l-4.157,0Z" style="fill:#fff;"/><path d="M11.473,5.472l-4.326,0l0,-4.309l4.326,0l0,4.309Zm-3.326,-3.309l0,2.309l2.326,0l0,-2.309l-2.326,0Z" style="fill:#fff;"/><path d="M5.357,4.066l-3.51,0l0,-3.497l3.51,0l0,3.497Zm-2.51,-2.497l0,1.497l1.51,0l0,-1.497l-1.51,0Z" style="fill:#fff;"/><path d="M11.473,10.912l-4.326,0l0,-4.31l4.326,0l0,4.31Zm-3.326,-3.31l0,2.31l2.326,0l0,-2.31l-2.326,0Z" style="fill:#fff;"/></g></svg>