<?xml version="1.0" encoding="UTF-8" standalone="no"?><!DOCTYPE svg PUBLIC "-//W3C//DTD SVG 1.1//EN" "http://www.w3.org/Graphics/SVG/1.1/DTD/svg11.dtd"><svg width="100%" height="100%" viewBox="0 0 16 14" version="1.1" xmlns="http://www.w3.org/2000/svg" xmlns:xlink="http://www.w3.org/1999/xlink" xml:space="preserve" xmlns:serif="http://www.serif.com/" style="fill-rule:evenodd;clip-rule:evenodd;stroke-linejoin:round;stroke-miterlimit:1.41421;"><g id="icon-create-collection"><path d="M15.439,8.125l-1,0l0,-1.894l-6.073,0l0,6.087l1.934,0l0,1l-2.934,0l0,-8.087l8.073,0l0,2.894Z" style="fill:#fff;fill-rule:nonzero;"/><path d="M6.29,13.336l-3.51,0l0,-3.497l3.51,0c0,1.166 0,2.331 0,3.497Zm-2.51,-2.497l0,1.497l1.51,0l0,-1.497c-0.503,0 -1.006,0 -1.51,0Z" style="fill:#fff;fill-rule:nonzero;"/><path d="M11.341,3.963l-3.51,0l0,-3.496l3.51,0c0,1.165 0,2.331 0,3.496Zm-2.51,-2.496l0,1.496l1.51,0l0,-1.496c-0.503,0 -1.006,0 -1.51,0Z" style="fill:#fff;fill-rule:nonzero;"/><path d="M6.248,8.623l-5.31,0l0,-5.29l5.31,0c0,1.763 0,3.526 0,5.29Zm-4.31,-4.29l0,3.29l3.31,0l0,-3.29c-1.103,0 -2.207,0 -3.31,0Z" style="fill:#fff;fill-rule:nonzero;"/><g id="icon-addrecord"><path d="M15.439,9.955l-1.828,0l0,-1.828l-1.49,0l0,1.828l-1.828,0l0,1.49l1.828,0l0,1.827l1.49,0l0,-1.827l1.828,0l0,-1.49Z" style="fill:#fff;"/></g></g></svg>