<?xml version="1.0" encoding="utf-8"?>
<!-- Generator: Adobe Illustrator 22.0.1, SVG Export Plug-In . SVG Version: 6.00 Build 0)  -->
<svg version="1.1" id="Layer_1" xmlns="http://www.w3.org/2000/svg" xmlns:xlink="http://www.w3.org/1999/xlink" x="0px" y="0px"
	 width="13.5px" height="13.5px" viewBox="0 0 13.5 13.5" style="enable-background:new 0 0 13.5 13.5;" xml:space="preserve">
<style type="text/css">
	.st0{fill-rule:evenodd;clip-rule:evenodd;fill:#151515;}
	.st1{fill-rule:evenodd;clip-rule:evenodd;fill:#FFFFFF;}
</style>
<polygon class="st0" points="0,4.8 4.8,4.8 4.8,0 8.7,0 8.7,4.8 13.5,4.8 13.5,8.7 8.7,8.7 8.7,13.5 4.8,13.5 4.8,8.7 0,8.7 0,4.8 
	"/>
<path class="st1" d="M8.7,4.8h4.8v3.9H8.7v4.8H4.8V8.7H0V4.8h4.8V0h3.9V4.8L8.7,4.8z M6.7,1.9v4.8H1.9v0.1h4.8v4.8h0.1V6.8h4.8V6.7
	H6.8L6.7,1.9L6.7,1.9L6.7,1.9z"/>
</svg>
