<?xml version="1.0" encoding="UTF-8" standalone="no"?><!DOCTYPE svg PUBLIC "-//W3C//DTD SVG 1.1//EN" "http://www.w3.org/Graphics/SVG/1.1/DTD/svg11.dtd"><svg width="100%" height="100%" viewBox="0 0 12 12" version="1.1" xmlns="http://www.w3.org/2000/svg" xmlns:xlink="http://www.w3.org/1999/xlink" xml:space="preserve" xmlns:serif="http://www.serif.com/" style="fill-rule:evenodd;clip-rule:evenodd;stroke-miterlimit:1.5;"><g id="icon-admin"><g><path d="M6.075,2.392l0.095,0.004l0.094,0.005l0.094,0.008l0.094,0.01l0.094,0.013l0.094,0.014l0.093,0.017l0.093,0.019l0.092,0.022l0.092,0.023l0.092,0.026l0.091,0.028l0.09,0.031l0.09,0.032l0.09,0.035l0.088,0.037l0.088,0.04l0.087,0.041l0.086,0.044l0.085,0.046l0.085,0.049l0.083,0.05l0.082,0.053l0.082,0.055l0.08,0.058l0.079,0.06l0.078,0.061l0.077,0.065l0.075,0.066l0.074,0.069l0.073,0.071l0.071,0.072l0.068,0.074l0.067,0.076l0.064,0.076l0.062,0.078l0.059,0.079l0.058,0.081l0.055,0.081l0.053,0.082l0.051,0.084l0.048,0.084l0.046,0.085l0.044,0.087l0.042,0.086l0.039,0.088l0.037,0.089l0.035,0.089l0.033,0.09l0.03,0.09l0.028,0.091l0.026,0.092l0.024,0.092l0.021,0.093l0.019,0.093l0.017,0.093l0.015,0.093l0.012,0.094l0.01,0.094l0.008,0.094l0.006,0.095l0.003,0.094l0.001,0.095l-0.001,0.094l-0.003,0.095l-0.006,0.094l-0.008,0.094l-0.01,0.094l-0.012,0.094l-0.015,0.094l-0.017,0.093l-0.019,0.093l-0.021,0.092l-0.024,0.092l-0.026,0.092l-0.028,0.091l-0.03,0.091l-0.033,0.089l-0.035,0.09l-0.037,0.088l-0.039,0.088l-0.042,0.087l-0.044,0.086l-0.046,0.085l-0.048,0.085l-0.051,0.083l-0.053,0.083l-0.055,0.081l-0.058,0.08l-0.059,0.079l-0.062,0.078l-0.064,0.077l-0.067,0.075l-0.068,0.074l-0.071,0.073l-0.073,0.071l-0.074,0.069l-0.075,0.066l-0.077,0.064l-0.078,0.062l-0.079,0.06l-0.08,0.057l-0.082,0.055l-0.082,0.053l-0.083,0.051l-0.085,0.048l-0.085,0.046l-0.086,0.044l-0.087,0.042l-0.088,0.039l-0.088,0.037l-0.09,0.035l-0.09,0.033l-0.09,0.03l-0.091,0.028l-0.092,0.026l-0.092,0.024l-0.092,0.021l-0.093,0.019l-0.093,0.017l-0.094,0.015l-0.094,0.012l-0.094,0.01l-0.094,0.008l-0.094,0.006l-0.095,0.003l-0.094,0.001l-0.095,-0.001l-0.094,-0.003l-0.095,-0.006l-0.094,-0.008l-0.094,-0.01l-0.094,-0.012l-0.093,-0.015l-0.094,-0.017l-0.093,-0.019l-0.092,-0.021l-0.092,-0.024l-0.092,-0.026l-0.091,-0.028l-0.09,-0.03l-0.09,-0.033l-0.089,-0.035l-0.089,-0.037l-0.088,-0.039l-0.087,-0.042l-0.086,-0.044l-0.085,-0.046l-0.084,-0.048l-0.084,-0.051l-0.082,-0.053l-0.082,-0.055l-0.08,-0.057l-0.079,-0.06l-0.078,-0.062l-0.076,-0.064l-0.076,-0.066l-0.074,-0.069l-0.073,-0.071l-0.071,-0.073l-0.068,-0.074l-0.067,-0.075l-0.064,-0.077l-0.062,-0.078l-0.059,-0.079l-0.058,-0.08l-0.055,-0.081l-0.053,-0.083l-0.05,-0.083l-0.049,-0.085l-0.046,-0.085l-0.044,-0.086l-0.041,-0.087l-0.04,-0.088l-0.037,-0.088l-0.035,-0.09l-0.033,-0.089l-0.03,-0.091l-0.028,-0.091l-0.026,-0.092l-0.024,-0.092l-0.021,-0.092l-0.019,-0.093l-0.017,-0.093l-0.015,-0.094l-0.012,-0.094l-0.01,-0.094l-0.008,-0.094l-0.006,-0.094l-0.003,-0.095l-0.001,-0.094l0.001,-0.095l0.003,-0.094l0.006,-0.095l0.008,-0.094l0.01,-0.094l0.012,-0.094l0.015,-0.093l0.017,-0.093l0.019,-0.093l0.021,-0.093l0.024,-0.092l0.026,-0.092l0.028,-0.091l0.03,-0.09l0.033,-0.09l0.035,-0.089l0.037,-0.089l0.04,-0.088l0.041,-0.086l0.044,-0.087l0.046,-0.085l0.049,-0.084l0.05,-0.084l0.053,-0.082l0.055,-0.081l0.058,-0.081l0.059,-0.079l0.062,-0.078l0.064,-0.076l0.067,-0.076l0.068,-0.074l0.071,-0.072l0.073,-0.071l0.074,-0.069l0.076,-0.066l0.076,-0.065l0.078,-0.061l0.079,-0.06l0.08,-0.058l0.082,-0.055l0.082,-0.053l0.084,-0.05l0.084,-0.049l0.085,-0.046l0.086,-0.044l0.087,-0.041l0.088,-0.04l0.089,-0.037l0.089,-0.035l0.09,-0.032l0.09,-0.031l0.091,-0.028l0.092,-0.026l0.092,-0.023l0.092,-0.022l0.093,-0.019l0.094,-0.017l0.093,-0.014l0.094,-0.013l0.094,-0.01l0.094,-0.008l0.095,-0.005l0.094,-0.004l0.095,-0.001l0.094,0.001Zm-0.153,1.5l-0.059,0.002l-0.059,0.003l-0.058,0.005l-0.059,0.007l-0.058,0.007l-0.058,0.009l-0.058,0.011l-0.057,0.012l-0.058,0.013l-0.057,0.015l-0.056,0.016l-0.057,0.017l-0.055,0.019l-0.056,0.02l-0.055,0.022l-0.055,0.022l-0.054,0.025l-0.053,0.025l-0.053,0.027l-0.053,0.029l-0.052,0.03l-0.051,0.031l-0.051,0.032l-0.05,0.034l-0.05,0.036l-0.049,0.037l-0.048,0.038l-0.047,0.04l-0.047,0.041l-0.046,0.043l-0.046,0.044l-0.044,0.046l-0.043,0.046l-0.041,0.047l-0.04,0.047l-0.039,0.049l-0.036,0.049l-0.036,0.049l-0.034,0.05l-0.032,0.051l-0.032,0.051l-0.029,0.052l-0.029,0.053l-0.027,0.053l-0.026,0.054l-0.024,0.054l-0.023,0.054l-0.021,0.055l-0.02,0.056l-0.019,0.056l-0.018,0.056l-0.016,0.057l-0.014,0.057l-0.013,0.057l-0.012,0.057l-0.011,0.058l-0.009,0.058l-0.008,0.059l-0.006,0.058l-0.005,0.059l-0.003,0.058l-0.002,0.059l-0.001,0.059l0.001,0.059l0.002,0.058l0.003,0.059l0.005,0.058l0.006,0.059l0.008,0.058l0.009,0.058l0.011,0.058l0.012,0.058l0.013,0.057l0.014,0.057l0.016,0.057l0.018,0.056l0.019,0.056l0.02,0.055l0.021,0.055l0.023,0.055l0.024,0.054l0.026,0.054l0.027,0.053l0.029,0.052l0.029,0.052l0.032,0.051l0.032,0.051l0.034,0.05l0.036,0.05l0.036,0.049l0.039,0.048l0.04,0.048l0.041,0.047l0.043,0.046l0.044,0.045l0.046,0.045l0.046,0.042l0.047,0.042l0.047,0.039l0.048,0.039l0.049,0.037l0.05,0.035l0.05,0.034l0.051,0.033l0.051,0.031l0.052,0.03l0.053,0.028l0.053,0.027l0.053,0.026l0.054,0.024l0.055,0.023l0.055,0.022l0.056,0.02l0.055,0.018l0.057,0.018l0.056,0.016l0.057,0.014l0.058,0.014l0.057,0.012l0.058,0.01l0.058,0.009l0.058,0.008l0.059,0.006l0.058,0.005l0.059,0.004l0.059,0.002l0.059,0l0.058,0l0.059,-0.002l0.059,-0.004l0.058,-0.005l0.059,-0.006l0.058,-0.008l0.058,-0.009l0.058,-0.01l0.057,-0.012l0.058,-0.014l0.057,-0.014l0.056,-0.016l0.057,-0.018l0.056,-0.018l0.055,-0.02l0.055,-0.022l0.055,-0.023l0.054,-0.024l0.053,-0.026l0.054,-0.027l0.052,-0.028l0.052,-0.03l0.051,-0.031l0.051,-0.033l0.05,-0.034l0.05,-0.035l0.049,-0.037l0.048,-0.039l0.048,-0.039l0.046,-0.042l0.047,-0.042l0.045,-0.045l0.044,-0.045l0.043,-0.046l0.041,-0.047l0.04,-0.048l0.039,-0.048l0.037,-0.049l0.035,-0.05l0.034,-0.05l0.033,-0.051l0.031,-0.051l0.03,-0.052l0.028,-0.052l0.027,-0.053l0.026,-0.054l0.024,-0.054l0.023,-0.055l0.021,-0.055l0.021,-0.055l0.018,-0.056l0.018,-0.056l0.016,-0.057l0.014,-0.057l0.014,-0.057l0.011,-0.058l0.011,-0.058l0.009,-0.058l0.008,-0.058l0.006,-0.059l0.005,-0.058l0.003,-0.059l0.002,-0.058l0.001,-0.059l-0.001,-0.059l-0.002,-0.059l-0.003,-0.058l-0.005,-0.059l-0.006,-0.058l-0.008,-0.059l-0.009,-0.058l-0.011,-0.058l-0.011,-0.057l-0.014,-0.057l-0.014,-0.057l-0.016,-0.057l-0.018,-0.056l-0.018,-0.056l-0.021,-0.056l-0.021,-0.055l-0.023,-0.054l-0.024,-0.054l-0.026,-0.054l-0.027,-0.053l-0.028,-0.053l-0.03,-0.052l-0.031,-0.051l-0.033,-0.051l-0.034,-0.05l-0.035,-0.049l-0.037,-0.049l-0.039,-0.049l-0.04,-0.047l-0.041,-0.047l-0.043,-0.046l-0.044,-0.046l-0.045,-0.044l-0.047,-0.043l-0.046,-0.041l-0.048,-0.04l-0.048,-0.038l-0.049,-0.037l-0.05,-0.036l-0.05,-0.034l-0.051,-0.032l-0.051,-0.031l-0.052,-0.03l-0.052,-0.029l-0.054,-0.027l-0.053,-0.025l-0.054,-0.025l-0.055,-0.022l-0.055,-0.022l-0.055,-0.02l-0.056,-0.019l-0.057,-0.017l-0.056,-0.016l-0.057,-0.015l-0.058,-0.013l-0.057,-0.012l-0.058,-0.011l-0.058,-0.009l-0.058,-0.007l-0.059,-0.007l-0.058,-0.005l-0.059,-0.003l-0.059,-0.002l-0.058,-0.001l-0.059,0.001Z" style="fill:#fff;"/></g><path d="M6.521,10.034l-1,0" style="fill:none;stroke:#fff;stroke-width:2px;"/><path d="M8.302,9.267l-0.866,0.5" style="fill:none;stroke:#fff;stroke-width:2px;"/><path d="M9.46,7.713l-0.5,0.866" style="fill:none;stroke:#fff;stroke-width:2px;"/><path d="M9.687,5.787l0,1" style="fill:none;stroke:#fff;stroke-width:2px;"/><path d="M8.92,4.007l0.5,0.866" style="fill:none;stroke:#fff;stroke-width:2px;"/><path d="M7.366,2.848l0.866,0.5" style="fill:none;stroke:#fff;stroke-width:2px;"/><path d="M5.44,2.622l1,0" style="fill:none;stroke:#fff;stroke-width:2px;"/><path d="M3.659,3.388l0.867,-0.5" style="fill:none;stroke:#fff;stroke-width:2px;"/><path d="M2.501,4.943l0.5,-0.866" style="fill:none;stroke:#fff;stroke-width:2px;"/><path d="M2.274,6.868l0,-1" style="fill:none;stroke:#fff;stroke-width:2px;"/><path d="M3.041,8.649l-0.5,-0.866" style="fill:none;stroke:#fff;stroke-width:2px;"/><path d="M4.595,9.808l-0.866,-0.5" style="fill:none;stroke:#fff;stroke-width:2px;"/></g></svg>