<?xml version="1.0" encoding="UTF-8" standalone="no"?><!DOCTYPE svg PUBLIC "-//W3C//DTD SVG 1.1//EN" "http://www.w3.org/Graphics/SVG/1.1/DTD/svg11.dtd"><svg width="100%" height="100%" viewBox="0 0 13 12" version="1.1" xmlns="http://www.w3.org/2000/svg" xmlns:xlink="http://www.w3.org/1999/xlink" xml:space="preserve" xmlns:serif="http://www.serif.com/" style="fill-rule:evenodd;clip-rule:evenodd;stroke-miterlimit:1.5;"><g id="icon-yourprofile"><path d="M10.656,11.686l-8.575,0l0,-9.576l8.575,0l0,9.576Zm-7.575,-8.576l0,7.576l6.575,0l0,-7.576l-6.575,0Z" style="fill:#fff;"/><path d="M3.064,9.285l-3.012,0l0,-3.496l3.012,0l0,3.496Zm-2.012,-2.496l0,1.496l1.012,0l0,-1.496l-1.012,0Z" style="fill:#fff;"/><path d="M12.661,9.285l-3.011,0l0,-3.496l3.011,0l0,3.496Zm-2.011,-2.496l0,1.496l1.011,0l0,-1.496l-1.011,0Z" style="fill:#fff;"/><path d="M3.143,1.678l1,0" style="fill:none;stroke:#fff;stroke-width:1px;"/><path d="M8.65,1.678l1,0" style="fill:none;stroke:#fff;stroke-width:1px;"/><path d="M6.814,1.678l1,0" style="fill:none;stroke:#fff;stroke-width:1px;"/><path d="M4.979,1.678l1,0" style="fill:none;stroke:#fff;stroke-width:1px;"/><path d="M4.578,8.582l3.441,0" style="fill:none;stroke:#fff;stroke-width:1px;"/><path d="M4.537,5.92l1.152,0" style="fill:none;stroke:#fff;stroke-width:1px;"/><path d="M6.888,5.92l1.152,0" style="fill:none;stroke:#fff;stroke-width:1px;"/></g></svg>