<?xml version="1.0" encoding="UTF-8" standalone="no"?><!DOCTYPE svg PUBLIC "-//W3C//DTD SVG 1.1//EN" "http://www.w3.org/Graphics/SVG/1.1/DTD/svg11.dtd"><svg width="100%" height="100%" viewBox="0 0 11 11" version="1.1" xmlns="http://www.w3.org/2000/svg" xmlns:xlink="http://www.w3.org/1999/xlink" xml:space="preserve" xmlns:serif="http://www.serif.com/" style="fill-rule:evenodd;clip-rule:evenodd;stroke-linejoin:round;stroke-miterlimit:1.41421;"><g id="icon-help"><path d="M10.558,10.35l-10.236,0l0,-10.274l10.236,0l0,10.274Zm-9.236,-9.274l0,8.274l8.236,0l0,-8.274l-8.236,0Z" style="fill:#fff;"/><path d="M6.044,6.064l0,-0.632c0.624,-0.328 1.16,-0.672 1.16,-1.624c0,-0.728 -0.64,-1.528 -1.688,-1.528c-0.968,0 -1.704,0.656 -1.704,1.656l0,0.136l1.112,0l0,-0.168c0,-0.424 0.216,-0.68 0.592,-0.68c0.384,0 0.584,0.288 0.584,0.608c0,0.6 -0.576,0.8 -1.216,1.016l0,1.216l1.16,0Zm0.032,1.912l0,-1.192l-1.224,0l0,1.192l1.224,0Z" style="fill:#fff;fill-rule:nonzero;"/></g></svg>