<?xml version="1.0" encoding="utf-8"?>
<!-- Generator: Adobe Illustrator 22.0.1, SVG Export Plug-In . SVG Version: 6.00 Build 0)  -->
<svg version="1.1" id="Layer_1" xmlns="http://www.w3.org/2000/svg" xmlns:xlink="http://www.w3.org/1999/xlink" x="0px" y="0px"
	 width="15.7px" height="8.5px" viewBox="0 0 15.7 8.5" style="enable-background:new 0 0 15.7 8.5;" xml:space="preserve">
<style type="text/css">
	.st0{fill:#FFFFFF;}
</style>
<g>
	<path class="st0" d="M7.9,8.5c-3,0-5.8-1.4-7.6-3.9L0,4.2l0.3-0.4C2.1,1.4,4.9,0,7.9,0c3,0,5.8,1.4,7.6,3.9l0.3,0.4l-0.3,0.4
		C13.7,7,10.8,8.5,7.9,8.5z M1.6,4.2c1.5,1.8,3.8,2.9,6.2,2.9c2.4,0,4.7-1.1,6.2-2.9c-1.5-1.8-3.8-2.9-6.2-2.9
		C5.5,1.3,3.2,2.4,1.6,4.2z"/>
</g>
<g>
	<path class="st0" d="M7.8,7.2c-1.7,0-3-1.3-3-3s1.3-3,3-3s3,1.3,3,3S9.4,7.2,7.8,7.2z M7.8,2.6c-0.9,0-1.7,0.8-1.7,1.7
		s0.8,1.7,1.7,1.7c0.9,0,1.7-0.8,1.7-1.7S8.7,2.6,7.8,2.6z"/>
</g>
</svg>
