<?xml version="1.0" encoding="UTF-8" standalone="no"?>
<!DOCTYPE svg PUBLIC "-//W3C//DTD SVG 1.1//EN" "http://www.w3.org/Graphics/SVG/1.1/DTD/svg11.dtd">
<svg width="100%" height="100%" viewBox="0 0 400 201" version="1.1" xmlns="http://www.w3.org/2000/svg" xmlns:xlink="http://www.w3.org/1999/xlink" xml:space="preserve" xmlns:serif="http://www.serif.com/" style="fill-rule:evenodd;clip-rule:evenodd;stroke-linejoin:round;stroke-miterlimit:2;">
    <g id="Artboard1" transform="matrix(1,0,0,1,-160.531,-265.653)">
        <rect x="160.531" y="265.653" width="400" height="200.798" style="fill:none;"/>
        <clipPath id="_clip1">
            <rect x="160.531" y="265.653" width="400" height="200.798"/>
        </clipPath>
        <g clip-path="url(#_clip1)">
            <g id="logo_humap_black" transform="matrix(0.202848,0,0,0.202848,-70.7128,-94.6597)">
                <path d="M2427.47,2439.4C2431.04,2439.4 2434.32,2441.34 2436.06,2444.45C2437.8,2447.57 2437.71,2451.38 2435.83,2454.41C2421.88,2476.82 2406.86,2498.57 2391.14,2519.64C2329.6,2602.06 2256.97,2676.41 2176.17,2740.72C2172.8,2743.4 2169.4,2746.07 2165.97,2748.68L2165.58,2748.97L2142.75,2766.16C2127.35,2754.58 2111.91,2743.03 2097.03,2730.77C2009.04,2658.26 1929.26,2574.04 1866.02,2479.65C1860.45,2471.34 1855.01,2462.93 1849.72,2454.42C1847.84,2451.39 1847.75,2447.58 1849.48,2444.46C1851.22,2441.34 1854.51,2439.41 1858.08,2439.41C1878.55,2439.4 1911.27,2439.4 1923.93,2439.4C1927.2,2439.4 1930.26,2441.03 1932.09,2443.74C1983.43,2519.69 2047.12,2587.64 2116.72,2648.99C2125.25,2656.51 2133.9,2663.91 2142.64,2671.17L2142.74,2671.24C2201.07,2622.95 2254.83,2569.23 2302.81,2510.79C2320.56,2489.16 2337.58,2466.81 2353.41,2443.69C2355.24,2441.01 2358.28,2439.4 2361.53,2439.4C2374.17,2439.4 2406.96,2439.4 2427.47,2439.4ZM1790.01,2022.03C1788.31,2022.03 1786.71,2021.18 1785.76,2019.76C1784.81,2018.34 1784.64,2016.54 1785.29,2014.96C1785.29,2014.96 1785.29,2014.96 1785.29,2014.96C1818.96,1934.03 1881.04,1865.15 1958.28,1823.15C2014.29,1792.7 2077.92,1776.53 2142.07,1776.37L2140.82,1776.37C2142.09,1776.24 2143.38,1776.24 2144.66,1776.37L2143.4,1776.37C2228.89,1776.59 2315.26,1806.33 2383,1860.07C2433.32,1899.99 2473.16,1952.63 2498.53,2011.68C2499.5,2013.98 2499.25,2016.61 2497.87,2018.69C2496.49,2020.77 2494.16,2022.02 2491.66,2022.02C2474.88,2022.03 2443.51,2022.03 2428.77,2022.03C2423.86,2022.03 2419.34,2019.34 2417,2015.02C2388.24,1962.35 2344.35,1917.85 2291.37,1889.04C2246.3,1864.54 2195.15,1851.58 2143.78,1851.37L2142.62,1851.37L2142.61,1851.37C2141.93,1851.3 2140.87,1851.36 2140.9,1851.37C2141,1851.37 2141.13,1851.37 2141.28,1851.37C2071.35,1851.76 2001.72,1876.41 1947.26,1920.29C1915.12,1946.18 1888.54,1978.62 1868.92,2014.96C1866.6,2019.31 1862.06,2022.03 1857.13,2022.03C1841.12,2022.03 1805.6,2022.03 1790.01,2022.03ZM2141.28,1851.37C2141.59,1851.37 2141.9,1851.37 2142.2,1851.37L2142.62,1851.37L2141.28,1851.37Z" style="fill:white;"/>
                <g transform="matrix(1.15325,0,0,1.10024,-622.528,-935.708)">
                    <g transform="matrix(0.832142,0,0,0.832142,107.178,459.379)">
                        <g transform="matrix(499.099,0,0,467.846,1675.34,3078.23)">
                            <path d="M0.106,0L0.222,0C0.248,0 0.263,-0.015 0.263,-0.041L0.263,-0.223C0.263,-0.252 0.279,-0.268 0.308,-0.268L0.494,-0.268C0.523,-0.268 0.539,-0.252 0.539,-0.223L0.539,-0.041C0.539,-0.015 0.555,0 0.581,0L0.696,0C0.722,0 0.737,-0.015 0.737,-0.041L0.737,-0.689C0.737,-0.715 0.722,-0.73 0.696,-0.73L0.581,-0.73C0.555,-0.73 0.539,-0.715 0.539,-0.689L0.539,-0.49C0.539,-0.461 0.523,-0.445 0.494,-0.445L0.308,-0.445C0.279,-0.445 0.263,-0.461 0.263,-0.49L0.263,-0.689C0.263,-0.715 0.248,-0.73 0.222,-0.73L0.106,-0.73C0.08,-0.73 0.065,-0.715 0.065,-0.689L0.065,-0.041C0.065,-0.015 0.08,0 0.106,0Z" style="fill:white;fill-rule:nonzero;"/>
                        </g>
                        <g transform="matrix(499.099,0,0,467.846,2113.05,3078.23)">
                            <path d="M0.057,-0.309C0.057,-0.121 0.2,0.01 0.382,0.01C0.562,0.01 0.708,-0.118 0.708,-0.309L0.708,-0.689C0.708,-0.715 0.692,-0.73 0.666,-0.73L0.546,-0.73C0.52,-0.73 0.505,-0.715 0.505,-0.689L0.505,-0.296C0.505,-0.213 0.443,-0.168 0.382,-0.168C0.324,-0.168 0.26,-0.211 0.26,-0.296L0.26,-0.689C0.26,-0.715 0.245,-0.73 0.219,-0.73L0.098,-0.73C0.072,-0.73 0.057,-0.715 0.057,-0.689L0.057,-0.309Z" style="fill:white;fill-rule:nonzero;"/>
                        </g>
                        <g transform="matrix(-499.099,6.1122e-14,-5.72946e-14,-467.846,3398.73,2741.38)">
                            <path d="M0.057,-0.309C0.057,-0.121 0.2,0.01 0.382,0.01C0.562,0.01 0.708,-0.118 0.708,-0.309L0.708,-0.689C0.708,-0.715 0.692,-0.73 0.666,-0.73L0.546,-0.73C0.52,-0.73 0.505,-0.715 0.505,-0.689L0.505,-0.296C0.505,-0.213 0.443,-0.168 0.382,-0.168C0.324,-0.168 0.26,-0.211 0.26,-0.296L0.26,-0.689C0.26,-0.715 0.245,-0.73 0.219,-0.73L0.098,-0.73C0.072,-0.73 0.057,-0.715 0.057,-0.689L0.057,-0.309Z" style="fill:white;fill-rule:nonzero;"/>
                        </g>
                        <g transform="matrix(499.099,0,0,467.846,2532.29,3078.23)">
                            <path d="M0.106,0L0.209,0C0.235,0 0.25,-0.015 0.25,-0.041L0.25,-0.387C0.25,-0.407 0.264,-0.412 0.275,-0.395L0.383,-0.237C0.397,-0.217 0.415,-0.208 0.439,-0.208L0.452,-0.208C0.477,-0.208 0.494,-0.215 0.509,-0.237L0.622,-0.395C0.634,-0.412 0.646,-0.406 0.646,-0.387L0.646,-0.041C0.646,-0.015 0.662,0 0.688,0L0.79,0C0.816,0 0.831,-0.015 0.831,-0.041L0.831,-0.683C0.831,-0.714 0.815,-0.73 0.785,-0.73L0.718,-0.73C0.694,-0.73 0.678,-0.722 0.662,-0.702L0.457,-0.433C0.448,-0.422 0.437,-0.423 0.429,-0.434L0.241,-0.701C0.226,-0.722 0.208,-0.73 0.184,-0.73L0.112,-0.73C0.081,-0.73 0.065,-0.714 0.065,-0.683L0.065,-0.041C0.065,-0.015 0.081,0 0.106,0Z" style="fill:white;fill-rule:nonzero;"/>
                        </g>
                        <g transform="matrix(499.099,0,0,467.846,3436.16,3078.23)">
                            <path d="M0.106,0L0.222,0C0.248,0 0.263,-0.015 0.263,-0.041L0.263,-0.17C0.263,-0.183 0.271,-0.191 0.283,-0.191L0.337,-0.191C0.512,-0.191 0.654,-0.297 0.654,-0.456C0.654,-0.621 0.512,-0.73 0.337,-0.73L0.122,-0.73C0.085,-0.73 0.065,-0.71 0.065,-0.673L0.065,-0.041C0.065,-0.015 0.08,0 0.106,0ZM0.263,-0.369L0.263,-0.551C0.263,-0.564 0.271,-0.572 0.283,-0.572L0.341,-0.572C0.403,-0.572 0.451,-0.518 0.451,-0.456C0.451,-0.4 0.403,-0.349 0.341,-0.349L0.283,-0.349C0.271,-0.349 0.263,-0.357 0.263,-0.369Z" style="fill:white;fill-rule:nonzero;"/>
                        </g>
                    </g>
                    <g transform="matrix(1,0,0,2.20514,-10.4305,-3491.41)">
                        <rect x="2706.47" y="2891.63" width="156.402" height="28.515" style="fill:white;"/>
                    </g>
                </g>
            </g>
        </g>
    </g>
</svg>
