<?xml version="1.0" encoding="UTF-8" standalone="no"?><!DOCTYPE svg PUBLIC "-//W3C//DTD SVG 1.1//EN" "http://www.w3.org/Graphics/SVG/1.1/DTD/svg11.dtd"><svg width="100%" height="100%" viewBox="0 0 548 560" version="1.1" xmlns="http://www.w3.org/2000/svg" xmlns:xlink="http://www.w3.org/1999/xlink" xml:space="preserve" xmlns:serif="http://www.serif.com/" style="fill-rule:evenodd;clip-rule:evenodd;stroke-linejoin:round;stroke-miterlimit:1.41421;"><rect id="narrow-03" x="0" y="0" width="548" height="560" style="fill:none;"/><clipPath id="_clip1"><rect x="0" y="0" width="548" height="560"/></clipPath><g clip-path="url(#_clip1)"><rect x="-1480.65" y="-545.5" width="2096.49" height="1997.16" style="fill:#afd2ff;"/><path d="M-63.496,2527.6l-797.024,25.012l181.223,-2627.36l2077.97,134.613l81.972,2421.77l-827.505,28.009l-341.36,685.02l-375.281,-667.068Z" style="fill:#dedede;"/><path d="M59.245,2052.02l-473.887,18.072l123.838,-1798.73l563.256,38.779l-80.862,1174.52l863.605,-29.232l19.099,564.267l-512.452,17.346l-255.142,479.681l-247.455,-464.702Z" style="fill:#4d4d4d;"/><path d="M876.42,489.437l-21.632,334.702l278.058,-9.411l14.572,430.495l-753.133,25.492l52.29,-809.059c143.281,9.261 286.563,18.521 429.845,27.781Z" style="fill:#4d4d4d;fill-rule:nonzero;"/></g></svg>