<?xml version="1.0" encoding="UTF-8" standalone="no"?><!DOCTYPE svg PUBLIC "-//W3C//DTD SVG 1.1//EN" "http://www.w3.org/Graphics/SVG/1.1/DTD/svg11.dtd"><svg width="100%" height="100%" viewBox="0 0 1135 560" version="1.1" xmlns="http://www.w3.org/2000/svg" xmlns:xlink="http://www.w3.org/1999/xlink" xml:space="preserve" xmlns:serif="http://www.serif.com/" style="fill-rule:evenodd;clip-rule:evenodd;stroke-linejoin:round;stroke-miterlimit:1.41421;"><rect id="Wide-08" x="0" y="0" width="1135" height="560" style="fill:none;"/><clipPath id="_clip1"><rect x="0" y="0" width="1135" height="560"/></clipPath><g clip-path="url(#_clip1)"><rect x="-1165.41" y="-1154.39" width="2096.49" height="1997.16" style="fill:#282878;"/><path d="M251.743,1918.71l-797.024,25.013l181.223,-2627.36l2077.97,134.613l81.972,2421.77l-827.505,28.01l-341.36,685.019l-375.281,-667.068Z" style="fill:#dedede;"/><path d="M374.484,1443.14l-473.887,18.072l123.838,-1798.73l563.256,38.779l-80.862,1174.52l863.605,-29.231l19.099,564.267l-512.452,17.345l-255.141,479.682l-247.456,-464.702Z" style="fill:#4d4d4d;"/><path d="M1191.66,-119.449l-21.632,334.702l278.058,-9.412l14.572,430.495l-753.132,25.492l52.289,-809.058c143.282,9.26 286.563,18.52 429.845,27.781Z" style="fill:#4d4d4d;fill-rule:nonzero;"/></g></svg>