<?xml version="1.0" encoding="UTF-8" standalone="no"?><!DOCTYPE svg PUBLIC "-//W3C//DTD SVG 1.1//EN" "http://www.w3.org/Graphics/SVG/1.1/DTD/svg11.dtd"><svg width="100%" height="100%" viewBox="0 0 1135 560" version="1.1" xmlns="http://www.w3.org/2000/svg" xmlns:xlink="http://www.w3.org/1999/xlink" xml:space="preserve" xmlns:serif="http://www.serif.com/" style="fill-rule:evenodd;clip-rule:evenodd;stroke-linejoin:round;stroke-miterlimit:1.41421;"><rect id="Wide-05" x="0" y="0" width="1135" height="560" style="fill:none;"/><clipPath id="_clip1"><rect x="0" y="0" width="1135" height="560"/></clipPath><g clip-path="url(#_clip1)"><g><rect x="-508.215" y="-545.5" width="2096.49" height="1997.16" style="fill:#549a76;"/><g><path d="M-419.78,2147.25l-895.638,28.108l203.645,-2952.43l2335.08,151.268l92.114,2721.41l-929.89,31.475l-383.595,769.775l-421.713,-749.603Z" style="fill:#ffeb57;"/><path d="M-281.853,1612.84l-532.52,20.308l139.16,-2021.28l632.947,43.576l-90.868,1319.84l970.456,-32.848l21.463,634.082l-575.857,19.491l-286.709,539.032l-278.072,-522.198Z" style="fill:#dedede;"/><path d="M636.428,-143.084l-24.308,376.113l312.461,-10.576l16.375,483.759l-846.315,28.646l58.759,-909.16c161.009,10.406 322.019,20.812 483.028,31.218Z" style="fill:#dedede;fill-rule:nonzero;"/></g></g></g></svg>