<?xml version="1.0" encoding="UTF-8" standalone="no"?><!DOCTYPE svg PUBLIC "-//W3C//DTD SVG 1.1//EN" "http://www.w3.org/Graphics/SVG/1.1/DTD/svg11.dtd"><svg width="100%" height="100%" viewBox="0 0 1135 560" version="1.1" xmlns="http://www.w3.org/2000/svg" xmlns:xlink="http://www.w3.org/1999/xlink" xml:space="preserve" xmlns:serif="http://www.serif.com/" style="fill-rule:evenodd;clip-rule:evenodd;stroke-linejoin:round;stroke-miterlimit:1.41421;"><rect id="Wide-10" x="0" y="0" width="1135" height="560" style="fill:none;"/><clipPath id="_clip1"><rect x="0" y="0" width="1135" height="560"/></clipPath><g clip-path="url(#_clip1)"><rect x="-336.192" y="-70.826" width="2096.49" height="1997.16" style="fill:#549a76;"/><path d="M-247.758,2621.92l-895.637,28.107l203.645,-2952.43l2335.08,151.269l92.114,2721.41l-929.889,31.475l-383.595,769.775l-421.714,-749.602Z" style="fill:#dedede;"/><path d="M-109.831,2087.51l-532.519,20.308l139.16,-2021.28l632.946,43.577l-90.868,1319.84l970.457,-32.848l21.462,634.081l-575.856,19.492l-286.709,539.031l-278.073,-522.198Z" style="fill:#4d4d4d;"/><path d="M808.45,331.59l-24.308,376.114l312.462,-10.576l16.374,483.759l-846.315,28.646l58.759,-909.161c161.01,10.406 322.019,20.812 483.028,31.218Z" style="fill:#4d4d4d;fill-rule:nonzero;"/></g></svg>