<?xml version="1.0" encoding="UTF-8" standalone="no"?><!DOCTYPE svg PUBLIC "-//W3C//DTD SVG 1.1//EN" "http://www.w3.org/Graphics/SVG/1.1/DTD/svg11.dtd"><svg width="100%" height="100%" viewBox="0 0 1135 560" version="1.1" xmlns="http://www.w3.org/2000/svg" xmlns:xlink="http://www.w3.org/1999/xlink" xml:space="preserve" xmlns:serif="http://www.serif.com/" style="fill-rule:evenodd;clip-rule:evenodd;stroke-linejoin:round;stroke-miterlimit:1.41421;"><rect id="Wide-07" x="0" y="0" width="1135" height="560" style="fill:none;"/><clipPath id="_clip1"><rect x="0" y="0" width="1135" height="560"/></clipPath><g clip-path="url(#_clip1)"><path d="M531.781,2382.07l-797.024,25.012l181.223,-2627.36l2077.97,134.613l81.972,2421.77l-827.505,28.009l-341.36,685.02l-375.281,-667.068Z" style="fill:#dedede;"/><path d="M654.522,1906.5l-473.887,18.072l123.838,-1798.73l563.256,38.778l-80.863,1174.52l863.606,-29.232l19.099,564.267l-512.452,17.346l-255.142,479.682l-247.455,-464.702Z" style="fill:#4d4d4d;"/><path d="M1471.7,343.909l-21.632,334.702l278.058,-9.411l14.572,430.495l-753.133,25.492l52.29,-809.059c143.281,9.261 286.563,18.521 429.845,27.781Z" style="fill:#4d4d4d;fill-rule:nonzero;"/></g></svg>