<?xml version="1.0" encoding="UTF-8" standalone="no"?><!DOCTYPE svg PUBLIC "-//W3C//DTD SVG 1.1//EN" "http://www.w3.org/Graphics/SVG/1.1/DTD/svg11.dtd"><svg width="100%" height="100%" viewBox="0 0 1135 560" version="1.1" xmlns="http://www.w3.org/2000/svg" xmlns:xlink="http://www.w3.org/1999/xlink" xml:space="preserve" xmlns:serif="http://www.serif.com/" style="fill-rule:evenodd;clip-rule:evenodd;stroke-linejoin:round;stroke-miterlimit:1.41421;"><rect id="Wide-09" x="0" y="0" width="1135" height="560" style="fill:none;"/><clipPath id="_clip1"><rect x="0" y="0" width="1135" height="560"/></clipPath><g clip-path="url(#_clip1)"><rect x="15.762" y="-1740.41" width="2096.49" height="1997.16" style="fill:#f00;"/><path d="M66.916,1479.68l-797.025,25.013l181.223,-2627.36l2077.98,134.614l81.972,2421.77l-827.505,28.009l-341.36,685.02l-375.281,-667.069Z" style="fill:#4d4d4d;"/><path d="M189.656,1004.11l-473.887,18.072l123.838,-1798.73l563.257,38.779l-80.863,1174.52l863.605,-29.231l19.1,564.267l-512.453,17.345l-255.141,479.682l-247.456,-464.702Z" style="fill:#4d4d4d;"/><path d="M1006.83,-558.476l-21.631,334.702l278.058,-9.412l14.571,430.496l-753.132,25.492l52.289,-809.059c143.282,9.26 286.564,18.521 429.845,27.781Z" style="fill:#4d4d4d;fill-rule:nonzero;"/></g></svg>